<mxfile host="app.diagrams.net" modified="2021-11-04T12:16:58.631Z" agent="5.0 (Windows NT 10.0; Win64; x64) AppleWebKit/537.36 (KHTML, like Gecko) Chrome/94.0.4606.81 Safari/537.36 OPR/80.0.4170.63" etag="mtKXkEgT5n8-LXiHEjcU" version="15.6.8" type="github">
  <diagram id="C5RBs43oDa-KdzZeNtuy" name="Page-1">
    <mxGraphModel dx="2209" dy="764" grid="1" gridSize="10" guides="1" tooltips="1" connect="1" arrows="1" fold="1" page="1" pageScale="1" pageWidth="827" pageHeight="1169" math="0" shadow="0">
      <root>
        <mxCell id="WIyWlLk6GJQsqaUBKTNV-0" />
        <mxCell id="WIyWlLk6GJQsqaUBKTNV-1" parent="WIyWlLk6GJQsqaUBKTNV-0" />
        <mxCell id="8WQcC468DqVq79VYUEjq-204" value="&lt;font style=&quot;font-size: 19px&quot;&gt;Սկիզբ&lt;/font&gt;" style="ellipse;whiteSpace=wrap;html=1;fontSize=25;fontColor=default;strokeColor=default;fillColor=default;" parent="WIyWlLk6GJQsqaUBKTNV-1" vertex="1">
          <mxGeometry x="111" y="88" width="115" height="40" as="geometry" />
        </mxCell>
        <mxCell id="8WQcC468DqVq79VYUEjq-205" value="row" style="shape=parallelogram;perimeter=parallelogramPerimeter;whiteSpace=wrap;html=1;fixedSize=1;fontSize=19;fontColor=default;strokeColor=default;fillColor=default;" parent="WIyWlLk6GJQsqaUBKTNV-1" vertex="1">
          <mxGeometry x="118.5" y="158" width="100" height="30" as="geometry" />
        </mxCell>
        <mxCell id="8WQcC468DqVq79VYUEjq-206" value="col" style="shape=parallelogram;perimeter=parallelogramPerimeter;whiteSpace=wrap;html=1;fixedSize=1;fontSize=19;fontColor=default;strokeColor=default;fillColor=default;" parent="WIyWlLk6GJQsqaUBKTNV-1" vertex="1">
          <mxGeometry x="118.5" y="308" width="100" height="30" as="geometry" />
        </mxCell>
        <mxCell id="8WQcC468DqVq79VYUEjq-207" value="" style="endArrow=none;html=1;rounded=0;labelBackgroundColor=default;fontSize=19;fontColor=default;strokeColor=default;strokeWidth=2;fillColor=default;" parent="WIyWlLk6GJQsqaUBKTNV-1" edge="1">
          <mxGeometry width="50" height="50" relative="1" as="geometry">
            <mxPoint x="168" y="158" as="sourcePoint" />
            <mxPoint x="168" y="128" as="targetPoint" />
          </mxGeometry>
        </mxCell>
        <mxCell id="8WQcC468DqVq79VYUEjq-208" value="" style="edgeStyle=orthogonalEdgeStyle;rounded=0;orthogonalLoop=1;jettySize=auto;html=1;labelBackgroundColor=default;fontSize=22;fontColor=default;strokeColor=default;strokeWidth=2;fillColor=default;" parent="WIyWlLk6GJQsqaUBKTNV-1" source="8WQcC468DqVq79VYUEjq-209" edge="1">
          <mxGeometry relative="1" as="geometry">
            <mxPoint x="38.09999999999991" y="143" as="targetPoint" />
          </mxGeometry>
        </mxCell>
        <mxCell id="8WQcC468DqVq79VYUEjq-209" value="&lt;font style=&quot;font-size: 14px&quot;&gt;row &amp;lt; 2 || row &amp;gt; K&lt;/font&gt;" style="rhombus;whiteSpace=wrap;html=1;fontSize=19;fontColor=default;strokeColor=default;fillColor=default;" parent="WIyWlLk6GJQsqaUBKTNV-1" vertex="1">
          <mxGeometry x="87.63999999999999" y="208" width="161.72" height="70" as="geometry" />
        </mxCell>
        <mxCell id="8WQcC468DqVq79VYUEjq-210" value="" style="endArrow=none;html=1;rounded=0;labelBackgroundColor=default;fontSize=14;fontColor=default;strokeColor=default;strokeWidth=2;fillColor=default;" parent="WIyWlLk6GJQsqaUBKTNV-1" edge="1">
          <mxGeometry width="50" height="50" relative="1" as="geometry">
            <mxPoint x="168" y="208" as="sourcePoint" />
            <mxPoint x="167.98999999999978" y="188" as="targetPoint" />
          </mxGeometry>
        </mxCell>
        <mxCell id="8WQcC468DqVq79VYUEjq-211" value="" style="endArrow=classic;html=1;rounded=0;labelBackgroundColor=default;fontSize=22;fontColor=default;strokeColor=default;strokeWidth=2;fillColor=default;" parent="WIyWlLk6GJQsqaUBKTNV-1" edge="1">
          <mxGeometry width="50" height="50" relative="1" as="geometry">
            <mxPoint x="41" y="148" as="sourcePoint" />
            <mxPoint x="171" y="148" as="targetPoint" />
          </mxGeometry>
        </mxCell>
        <mxCell id="8WQcC468DqVq79VYUEjq-212" value="" style="edgeStyle=orthogonalEdgeStyle;rounded=0;orthogonalLoop=1;jettySize=auto;html=1;labelBackgroundColor=default;fontSize=22;fontColor=default;strokeColor=default;strokeWidth=2;fillColor=default;" parent="WIyWlLk6GJQsqaUBKTNV-1" source="8WQcC468DqVq79VYUEjq-213" edge="1">
          <mxGeometry relative="1" as="geometry">
            <mxPoint x="38.09999999999991" y="295.5" as="targetPoint" />
          </mxGeometry>
        </mxCell>
        <mxCell id="8WQcC468DqVq79VYUEjq-213" value="&lt;font style=&quot;font-size: 14px&quot;&gt;col &amp;lt; 2 || col &amp;gt; K&lt;/font&gt;" style="rhombus;whiteSpace=wrap;html=1;fontSize=19;fontColor=default;strokeColor=default;fillColor=default;" parent="WIyWlLk6GJQsqaUBKTNV-1" vertex="1">
          <mxGeometry x="87.63999999999999" y="358" width="161.72" height="70" as="geometry" />
        </mxCell>
        <mxCell id="8WQcC468DqVq79VYUEjq-214" value="" style="endArrow=none;html=1;rounded=0;labelBackgroundColor=default;fontSize=22;fontColor=default;strokeColor=default;strokeWidth=2;fillColor=default;" parent="WIyWlLk6GJQsqaUBKTNV-1" edge="1">
          <mxGeometry width="50" height="50" relative="1" as="geometry">
            <mxPoint x="168" y="338" as="sourcePoint" />
            <mxPoint x="168" y="348" as="targetPoint" />
            <Array as="points">
              <mxPoint x="168" y="358" />
            </Array>
          </mxGeometry>
        </mxCell>
        <mxCell id="8WQcC468DqVq79VYUEjq-215" value="" style="endArrow=none;html=1;rounded=0;labelBackgroundColor=default;fontSize=22;fontColor=default;strokeColor=default;strokeWidth=2;fillColor=default;" parent="WIyWlLk6GJQsqaUBKTNV-1" edge="1">
          <mxGeometry width="50" height="50" relative="1" as="geometry">
            <mxPoint x="168" y="278" as="sourcePoint" />
            <mxPoint x="168" y="308" as="targetPoint" />
          </mxGeometry>
        </mxCell>
        <mxCell id="8WQcC468DqVq79VYUEjq-216" value="" style="endArrow=none;html=1;rounded=0;labelBackgroundColor=default;fontSize=22;fontColor=default;strokeColor=default;strokeWidth=2;fillColor=default;" parent="WIyWlLk6GJQsqaUBKTNV-1" edge="1">
          <mxGeometry width="50" height="50" relative="1" as="geometry">
            <mxPoint x="37.63999999999987" y="298" as="sourcePoint" />
            <mxPoint x="87.63999999999987" y="298" as="targetPoint" />
          </mxGeometry>
        </mxCell>
        <mxCell id="8WQcC468DqVq79VYUEjq-217" value="" style="endArrow=classic;html=1;rounded=0;labelBackgroundColor=default;fontSize=22;fontColor=default;strokeColor=default;strokeWidth=2;fillColor=default;" parent="WIyWlLk6GJQsqaUBKTNV-1" edge="1">
          <mxGeometry width="50" height="50" relative="1" as="geometry">
            <mxPoint x="81" y="298" as="sourcePoint" />
            <mxPoint x="171" y="298" as="targetPoint" />
          </mxGeometry>
        </mxCell>
        <mxCell id="8WQcC468DqVq79VYUEjq-218" value="&lt;font style=&quot;font-size: 18px&quot;&gt;i = 0; i &amp;lt; row; i++&lt;/font&gt;" style="shape=hexagon;perimeter=hexagonPerimeter2;whiteSpace=wrap;html=1;fixedSize=1;fontSize=22;fontColor=default;strokeColor=default;fillColor=default;" parent="WIyWlLk6GJQsqaUBKTNV-1" vertex="1">
          <mxGeometry x="67.25" y="457" width="202.5" height="30" as="geometry" />
        </mxCell>
        <mxCell id="8WQcC468DqVq79VYUEjq-219" value="&lt;font style=&quot;font-size: 18px&quot;&gt;j = 0; j &amp;lt; col; j++&lt;/font&gt;" style="shape=hexagon;perimeter=hexagonPerimeter2;whiteSpace=wrap;html=1;fixedSize=1;fontSize=22;fontColor=default;strokeColor=default;fillColor=default;" parent="WIyWlLk6GJQsqaUBKTNV-1" vertex="1">
          <mxGeometry x="67.25" y="507" width="202.5" height="30" as="geometry" />
        </mxCell>
        <mxCell id="8WQcC468DqVq79VYUEjq-220" value="" style="endArrow=none;html=1;rounded=0;labelBackgroundColor=default;fontSize=18;fontColor=default;strokeColor=default;strokeWidth=2;fillColor=default;" parent="WIyWlLk6GJQsqaUBKTNV-1" edge="1">
          <mxGeometry width="50" height="50" relative="1" as="geometry">
            <mxPoint x="168" y="507" as="sourcePoint" />
            <mxPoint x="168" y="487" as="targetPoint" />
          </mxGeometry>
        </mxCell>
        <mxCell id="8WQcC468DqVq79VYUEjq-221" value="X[ i ][ j ]" style="shape=parallelogram;perimeter=parallelogramPerimeter;whiteSpace=wrap;html=1;fixedSize=1;fontSize=19;fontColor=default;strokeColor=default;fillColor=default;" parent="WIyWlLk6GJQsqaUBKTNV-1" vertex="1">
          <mxGeometry x="116" y="557" width="100" height="30" as="geometry" />
        </mxCell>
        <mxCell id="8WQcC468DqVq79VYUEjq-222" value="" style="edgeStyle=orthogonalEdgeStyle;rounded=0;orthogonalLoop=1;jettySize=auto;html=1;labelBackgroundColor=default;fontSize=17;fontColor=default;strokeColor=default;strokeWidth=2;fillColor=default;" parent="WIyWlLk6GJQsqaUBKTNV-1" source="8WQcC468DqVq79VYUEjq-223" edge="1">
          <mxGeometry relative="1" as="geometry">
            <mxPoint x="36" y="542" as="targetPoint" />
          </mxGeometry>
        </mxCell>
        <mxCell id="8WQcC468DqVq79VYUEjq-223" value="&lt;font style=&quot;font-size: 17px&quot;&gt;X[ i ][ j ]&amp;nbsp;≤ 0&amp;nbsp;&lt;/font&gt;" style="rhombus;whiteSpace=wrap;html=1;fontSize=19;fontColor=default;strokeColor=default;fillColor=default;" parent="WIyWlLk6GJQsqaUBKTNV-1" vertex="1">
          <mxGeometry x="85.13999999999999" y="607" width="165.86" height="70" as="geometry" />
        </mxCell>
        <mxCell id="8WQcC468DqVq79VYUEjq-224" value="" style="endArrow=none;html=1;rounded=0;labelBackgroundColor=default;fontSize=17;fontColor=default;strokeColor=default;strokeWidth=2;fillColor=default;" parent="WIyWlLk6GJQsqaUBKTNV-1" edge="1">
          <mxGeometry width="50" height="50" relative="1" as="geometry">
            <mxPoint x="168" y="557" as="sourcePoint" />
            <mxPoint x="168" y="537" as="targetPoint" />
          </mxGeometry>
        </mxCell>
        <mxCell id="8WQcC468DqVq79VYUEjq-225" value="" style="endArrow=none;html=1;rounded=0;labelBackgroundColor=default;fontSize=17;fontColor=default;strokeColor=default;strokeWidth=2;fillColor=default;" parent="WIyWlLk6GJQsqaUBKTNV-1" edge="1">
          <mxGeometry width="50" height="50" relative="1" as="geometry">
            <mxPoint x="168" y="607" as="sourcePoint" />
            <mxPoint x="168" y="587" as="targetPoint" />
          </mxGeometry>
        </mxCell>
        <mxCell id="8WQcC468DqVq79VYUEjq-226" value="" style="endArrow=classic;html=1;rounded=0;labelBackgroundColor=default;fontSize=17;fontColor=default;strokeColor=default;strokeWidth=2;fillColor=default;" parent="WIyWlLk6GJQsqaUBKTNV-1" edge="1">
          <mxGeometry width="50" height="50" relative="1" as="geometry">
            <mxPoint x="37.25" y="547" as="sourcePoint" />
            <mxPoint x="171" y="547" as="targetPoint" />
          </mxGeometry>
        </mxCell>
        <mxCell id="8WQcC468DqVq79VYUEjq-227" value="" style="endArrow=none;html=1;rounded=0;labelBackgroundColor=default;fontSize=17;fontColor=default;strokeColor=default;strokeWidth=2;fillColor=default;" parent="WIyWlLk6GJQsqaUBKTNV-1" edge="1">
          <mxGeometry width="50" height="50" relative="1" as="geometry">
            <mxPoint x="168" y="697" as="sourcePoint" />
            <mxPoint x="168" y="677" as="targetPoint" />
          </mxGeometry>
        </mxCell>
        <mxCell id="8WQcC468DqVq79VYUEjq-228" value="" style="endArrow=none;html=1;rounded=0;labelBackgroundColor=default;fontSize=16;fontColor=default;strokeColor=default;strokeWidth=2;fillColor=default;" parent="WIyWlLk6GJQsqaUBKTNV-1" edge="1">
          <mxGeometry width="50" height="50" relative="1" as="geometry">
            <mxPoint x="11" y="697" as="sourcePoint" />
            <mxPoint x="168.30000000000018" y="697" as="targetPoint" />
          </mxGeometry>
        </mxCell>
        <mxCell id="8WQcC468DqVq79VYUEjq-229" value="" style="endArrow=classic;html=1;rounded=0;labelBackgroundColor=default;fontSize=16;fontColor=default;strokeColor=default;strokeWidth=2;fillColor=default;" parent="WIyWlLk6GJQsqaUBKTNV-1" edge="1">
          <mxGeometry width="50" height="50" relative="1" as="geometry">
            <mxPoint x="11" y="522" as="sourcePoint" />
            <mxPoint x="71" y="522" as="targetPoint" />
          </mxGeometry>
        </mxCell>
        <mxCell id="8WQcC468DqVq79VYUEjq-230" value="" style="endArrow=none;html=1;rounded=0;labelBackgroundColor=default;fontSize=16;fontColor=default;strokeColor=default;strokeWidth=2;fillColor=default;startArrow=none;" parent="WIyWlLk6GJQsqaUBKTNV-1" edge="1">
          <mxGeometry width="50" height="50" relative="1" as="geometry">
            <mxPoint x="11" y="522" as="sourcePoint" />
            <mxPoint x="11" y="527" as="targetPoint" />
          </mxGeometry>
        </mxCell>
        <mxCell id="8WQcC468DqVq79VYUEjq-231" value="" style="endArrow=none;html=1;rounded=0;labelBackgroundColor=default;fontSize=16;fontColor=default;strokeColor=default;strokeWidth=2;fillColor=default;" parent="WIyWlLk6GJQsqaUBKTNV-1" edge="1">
          <mxGeometry width="50" height="50" relative="1" as="geometry">
            <mxPoint x="11" y="697" as="sourcePoint" />
            <mxPoint x="11" y="522" as="targetPoint" />
          </mxGeometry>
        </mxCell>
        <mxCell id="8WQcC468DqVq79VYUEjq-232" value="" style="endArrow=none;html=1;rounded=0;labelBackgroundColor=default;fontSize=16;fontColor=default;strokeColor=default;strokeWidth=2;fillColor=default;" parent="WIyWlLk6GJQsqaUBKTNV-1" edge="1">
          <mxGeometry width="50" height="50" relative="1" as="geometry">
            <mxPoint x="269.3199999999997" y="521.5" as="sourcePoint" />
            <mxPoint x="291" y="522" as="targetPoint" />
          </mxGeometry>
        </mxCell>
        <mxCell id="8WQcC468DqVq79VYUEjq-233" value="" style="endArrow=none;html=1;rounded=0;labelBackgroundColor=default;fontSize=16;fontColor=default;strokeColor=default;strokeWidth=2;fillColor=default;" parent="WIyWlLk6GJQsqaUBKTNV-1" edge="1">
          <mxGeometry width="50" height="50" relative="1" as="geometry">
            <mxPoint x="290" y="717" as="sourcePoint" />
            <mxPoint x="289.75" y="522" as="targetPoint" />
          </mxGeometry>
        </mxCell>
        <mxCell id="8WQcC468DqVq79VYUEjq-234" value="" style="endArrow=none;html=1;rounded=0;labelBackgroundColor=default;fontSize=16;fontColor=default;strokeColor=default;strokeWidth=2;fillColor=default;startArrow=none;" parent="WIyWlLk6GJQsqaUBKTNV-1" edge="1">
          <mxGeometry width="50" height="50" relative="1" as="geometry">
            <mxPoint x="289.3199999999997" y="717" as="sourcePoint" />
            <mxPoint x="288.5" y="717" as="targetPoint" />
          </mxGeometry>
        </mxCell>
        <mxCell id="8WQcC468DqVq79VYUEjq-235" value="" style="endArrow=none;html=1;rounded=0;labelBackgroundColor=default;fontSize=16;fontColor=default;strokeColor=default;strokeWidth=2;fillColor=default;" parent="WIyWlLk6GJQsqaUBKTNV-1" edge="1">
          <mxGeometry width="50" height="50" relative="1" as="geometry">
            <mxPoint x="-9" y="717" as="sourcePoint" />
            <mxPoint x="289.3199999999997" y="717" as="targetPoint" />
          </mxGeometry>
        </mxCell>
        <mxCell id="8WQcC468DqVq79VYUEjq-236" value="" style="endArrow=none;html=1;rounded=0;labelBackgroundColor=default;fontSize=16;fontColor=default;strokeColor=default;strokeWidth=2;fillColor=default;entryX=0.475;entryY=0.45;entryDx=0;entryDy=0;entryPerimeter=0;" parent="WIyWlLk6GJQsqaUBKTNV-1" edge="1">
          <mxGeometry width="50" height="50" relative="1" as="geometry">
            <mxPoint x="-9" y="717" as="sourcePoint" />
            <mxPoint x="-9" y="472" as="targetPoint" />
          </mxGeometry>
        </mxCell>
        <mxCell id="8WQcC468DqVq79VYUEjq-237" value="" style="endArrow=classic;html=1;rounded=0;labelBackgroundColor=default;fontSize=16;fontColor=default;strokeColor=default;strokeWidth=2;fillColor=default;startArrow=none;" parent="WIyWlLk6GJQsqaUBKTNV-1" edge="1">
          <mxGeometry width="50" height="50" relative="1" as="geometry">
            <mxPoint x="-9" y="472" as="sourcePoint" />
            <mxPoint x="71" y="471.5" as="targetPoint" />
          </mxGeometry>
        </mxCell>
        <mxCell id="8WQcC468DqVq79VYUEjq-238" value="" style="endArrow=none;html=1;rounded=0;labelBackgroundColor=default;fontSize=16;fontColor=default;strokeColor=default;strokeWidth=2;fillColor=default;" parent="WIyWlLk6GJQsqaUBKTNV-1" edge="1">
          <mxGeometry width="50" height="50" relative="1" as="geometry">
            <mxPoint x="-9" y="471.5" as="sourcePoint" />
            <mxPoint x="-9" y="472" as="targetPoint" />
          </mxGeometry>
        </mxCell>
        <mxCell id="8WQcC468DqVq79VYUEjq-239" value="" style="endArrow=none;html=1;rounded=0;labelBackgroundColor=default;fontSize=16;fontColor=default;strokeColor=default;strokeWidth=2;fillColor=default;startArrow=none;" parent="WIyWlLk6GJQsqaUBKTNV-1" edge="1">
          <mxGeometry width="50" height="50" relative="1" as="geometry">
            <mxPoint x="311" y="463" as="sourcePoint" />
            <mxPoint x="311" y="463" as="targetPoint" />
          </mxGeometry>
        </mxCell>
        <mxCell id="8WQcC468DqVq79VYUEjq-240" value="&lt;font style=&quot;font-size: 16px&quot;&gt;int max = X[0][0]&amp;nbsp;&lt;/font&gt;" style="rounded=0;whiteSpace=wrap;html=1;fontSize=17;fontColor=default;strokeColor=default;fillColor=default;" parent="WIyWlLk6GJQsqaUBKTNV-1" vertex="1">
          <mxGeometry x="536.62" y="158" width="143.75" height="40" as="geometry" />
        </mxCell>
        <mxCell id="8WQcC468DqVq79VYUEjq-241" value="&lt;font style=&quot;font-size: 18px&quot;&gt;i = 0; i &amp;lt; row; i++&lt;/font&gt;" style="shape=hexagon;perimeter=hexagonPerimeter2;whiteSpace=wrap;html=1;fixedSize=1;fontSize=22;fontColor=default;strokeColor=default;fillColor=default;" parent="WIyWlLk6GJQsqaUBKTNV-1" vertex="1">
          <mxGeometry x="506.81999999999994" y="218" width="202.5" height="30" as="geometry" />
        </mxCell>
        <mxCell id="8WQcC468DqVq79VYUEjq-242" value="&lt;font style=&quot;font-size: 18px&quot;&gt;j = 0; j &amp;lt; col; j++&lt;/font&gt;" style="shape=hexagon;perimeter=hexagonPerimeter2;whiteSpace=wrap;html=1;fixedSize=1;fontSize=22;fontColor=default;strokeColor=default;fillColor=default;" parent="WIyWlLk6GJQsqaUBKTNV-1" vertex="1">
          <mxGeometry x="506.81999999999994" y="268" width="202.5" height="30" as="geometry" />
        </mxCell>
        <mxCell id="8WQcC468DqVq79VYUEjq-243" value="" style="endArrow=none;html=1;rounded=0;labelBackgroundColor=default;fontSize=16;fontColor=default;strokeColor=default;strokeWidth=2;fillColor=default;" parent="WIyWlLk6GJQsqaUBKTNV-1" edge="1">
          <mxGeometry width="50" height="50" relative="1" as="geometry">
            <mxPoint x="608" y="218" as="sourcePoint" />
            <mxPoint x="607.5699999999997" y="198" as="targetPoint" />
          </mxGeometry>
        </mxCell>
        <mxCell id="8WQcC468DqVq79VYUEjq-244" value="" style="endArrow=none;html=1;rounded=0;labelBackgroundColor=default;fontSize=16;fontColor=default;strokeColor=default;strokeWidth=2;fillColor=default;startArrow=none;" parent="WIyWlLk6GJQsqaUBKTNV-1" edge="1">
          <mxGeometry width="50" height="50" relative="1" as="geometry">
            <mxPoint x="608.0699999999997" y="128" as="sourcePoint" />
            <mxPoint x="608" y="128" as="targetPoint" />
          </mxGeometry>
        </mxCell>
        <mxCell id="8WQcC468DqVq79VYUEjq-245" value="" style="endArrow=none;html=1;rounded=0;labelBackgroundColor=default;fontSize=16;fontColor=default;strokeColor=default;strokeWidth=2;fillColor=default;" parent="WIyWlLk6GJQsqaUBKTNV-1" edge="1">
          <mxGeometry width="50" height="50" relative="1" as="geometry">
            <mxPoint x="608" y="158" as="sourcePoint" />
            <mxPoint x="608.0699999999997" y="128" as="targetPoint" />
          </mxGeometry>
        </mxCell>
        <mxCell id="8WQcC468DqVq79VYUEjq-246" value="" style="endArrow=none;html=1;rounded=0;labelBackgroundColor=default;fontSize=16;fontColor=default;strokeColor=default;strokeWidth=2;fillColor=default;" parent="WIyWlLk6GJQsqaUBKTNV-1" edge="1">
          <mxGeometry width="50" height="50" relative="1" as="geometry">
            <mxPoint x="608" y="268" as="sourcePoint" />
            <mxPoint x="607.5699999999997" y="248" as="targetPoint" />
          </mxGeometry>
        </mxCell>
        <mxCell id="8WQcC468DqVq79VYUEjq-247" value="&lt;font style=&quot;font-size: 17px&quot;&gt;X[ i ][ j ] &amp;gt; max&amp;nbsp;&lt;/font&gt;" style="rhombus;whiteSpace=wrap;html=1;fontSize=19;fontColor=default;strokeColor=default;fillColor=default;" parent="WIyWlLk6GJQsqaUBKTNV-1" vertex="1">
          <mxGeometry x="525.14" y="318" width="165.86" height="70" as="geometry" />
        </mxCell>
        <mxCell id="8WQcC468DqVq79VYUEjq-248" value="&lt;span style=&quot;font-size: 16px&quot;&gt;X[ i ][ j ] = max&lt;/span&gt;" style="rounded=0;whiteSpace=wrap;html=1;fontSize=17;fontColor=default;strokeColor=default;fillColor=default;" parent="WIyWlLk6GJQsqaUBKTNV-1" vertex="1">
          <mxGeometry x="536.62" y="418" width="143.75" height="40" as="geometry" />
        </mxCell>
        <mxCell id="8WQcC468DqVq79VYUEjq-249" value="" style="endArrow=none;html=1;rounded=0;labelBackgroundColor=default;fontSize=16;fontColor=default;strokeColor=default;strokeWidth=2;fillColor=default;" parent="WIyWlLk6GJQsqaUBKTNV-1" edge="1">
          <mxGeometry width="50" height="50" relative="1" as="geometry">
            <mxPoint x="608" y="418" as="sourcePoint" />
            <mxPoint x="608" y="388" as="targetPoint" />
          </mxGeometry>
        </mxCell>
        <mxCell id="8WQcC468DqVq79VYUEjq-250" value="" style="line;strokeWidth=2;html=1;fontSize=16;fontColor=default;fillColor=default;strokeColor=default;" parent="WIyWlLk6GJQsqaUBKTNV-1" vertex="1">
          <mxGeometry x="689.36" y="348" width="21.64" height="10" as="geometry" />
        </mxCell>
        <mxCell id="8WQcC468DqVq79VYUEjq-251" value="" style="endArrow=none;html=1;rounded=0;labelBackgroundColor=default;fontSize=16;fontColor=default;strokeColor=default;strokeWidth=2;fillColor=default;" parent="WIyWlLk6GJQsqaUBKTNV-1" edge="1">
          <mxGeometry width="50" height="50" relative="1" as="geometry">
            <mxPoint x="451" y="478" as="sourcePoint" />
            <mxPoint x="711" y="478" as="targetPoint" />
          </mxGeometry>
        </mxCell>
        <mxCell id="8WQcC468DqVq79VYUEjq-252" value="" style="endArrow=none;html=1;rounded=0;labelBackgroundColor=default;fontSize=16;fontColor=default;strokeColor=default;strokeWidth=2;fillColor=default;entryX=0.475;entryY=0.425;entryDx=0;entryDy=0;entryPerimeter=0;" parent="WIyWlLk6GJQsqaUBKTNV-1" edge="1">
          <mxGeometry width="50" height="50" relative="1" as="geometry">
            <mxPoint x="451" y="478" as="sourcePoint" />
            <mxPoint x="451" y="283" as="targetPoint" />
          </mxGeometry>
        </mxCell>
        <mxCell id="8WQcC468DqVq79VYUEjq-253" value="" style="endArrow=none;html=1;rounded=0;labelBackgroundColor=default;fontSize=16;fontColor=default;strokeColor=default;strokeWidth=2;fillColor=default;" parent="WIyWlLk6GJQsqaUBKTNV-1" edge="1">
          <mxGeometry width="50" height="50" relative="1" as="geometry">
            <mxPoint x="608" y="318" as="sourcePoint" />
            <mxPoint x="608" y="298" as="targetPoint" />
          </mxGeometry>
        </mxCell>
        <mxCell id="8WQcC468DqVq79VYUEjq-254" value="" style="endArrow=none;html=1;rounded=0;labelBackgroundColor=default;fontSize=16;fontColor=default;strokeColor=default;strokeWidth=2;fillColor=default;" parent="WIyWlLk6GJQsqaUBKTNV-1" edge="1">
          <mxGeometry width="50" height="50" relative="1" as="geometry">
            <mxPoint x="608" y="478" as="sourcePoint" />
            <mxPoint x="607.5699999999997" y="458" as="targetPoint" />
          </mxGeometry>
        </mxCell>
        <mxCell id="8WQcC468DqVq79VYUEjq-255" value="" style="endArrow=classic;html=1;rounded=0;labelBackgroundColor=default;fontSize=16;fontColor=default;strokeColor=default;strokeWidth=2;fillColor=default;startArrow=none;" parent="WIyWlLk6GJQsqaUBKTNV-1" edge="1">
          <mxGeometry width="50" height="50" relative="1" as="geometry">
            <mxPoint x="451" y="283" as="sourcePoint" />
            <mxPoint x="511" y="282.5" as="targetPoint" />
          </mxGeometry>
        </mxCell>
        <mxCell id="8WQcC468DqVq79VYUEjq-256" value="" style="endArrow=none;html=1;rounded=0;labelBackgroundColor=default;fontSize=16;fontColor=default;strokeColor=default;strokeWidth=2;fillColor=default;" parent="WIyWlLk6GJQsqaUBKTNV-1" edge="1">
          <mxGeometry width="50" height="50" relative="1" as="geometry">
            <mxPoint x="451" y="283" as="sourcePoint" />
            <mxPoint x="451" y="283" as="targetPoint" />
          </mxGeometry>
        </mxCell>
        <mxCell id="8WQcC468DqVq79VYUEjq-257" value="" style="line;strokeWidth=2;html=1;fontSize=16;fontColor=default;fillColor=default;strokeColor=default;" parent="WIyWlLk6GJQsqaUBKTNV-1" vertex="1">
          <mxGeometry x="709.3199999999999" y="278" width="21.68" height="10" as="geometry" />
        </mxCell>
        <mxCell id="8WQcC468DqVq79VYUEjq-258" value="" style="endArrow=none;html=1;rounded=0;labelBackgroundColor=default;fontSize=16;fontColor=default;strokeColor=default;strokeWidth=2;fillColor=default;" parent="WIyWlLk6GJQsqaUBKTNV-1" edge="1">
          <mxGeometry width="50" height="50" relative="1" as="geometry">
            <mxPoint x="731" y="398" as="sourcePoint" />
            <mxPoint x="731" y="283" as="targetPoint" />
          </mxGeometry>
        </mxCell>
        <mxCell id="8WQcC468DqVq79VYUEjq-259" value="" style="endArrow=none;html=1;rounded=0;labelBackgroundColor=default;fontSize=16;fontColor=default;strokeColor=default;strokeWidth=2;fillColor=default;" parent="WIyWlLk6GJQsqaUBKTNV-1" edge="1">
          <mxGeometry width="50" height="50" relative="1" as="geometry">
            <mxPoint x="711" y="478" as="sourcePoint" />
            <mxPoint x="711" y="353" as="targetPoint" />
          </mxGeometry>
        </mxCell>
        <mxCell id="8WQcC468DqVq79VYUEjq-260" value="" style="endArrow=none;html=1;rounded=0;labelBackgroundColor=default;fontSize=16;fontColor=default;strokeColor=default;strokeWidth=2;fillColor=default;" parent="WIyWlLk6GJQsqaUBKTNV-1" edge="1">
          <mxGeometry width="50" height="50" relative="1" as="geometry">
            <mxPoint x="731" y="498" as="sourcePoint" />
            <mxPoint x="731" y="393" as="targetPoint" />
          </mxGeometry>
        </mxCell>
        <mxCell id="8WQcC468DqVq79VYUEjq-261" value="" style="endArrow=none;html=1;rounded=0;labelBackgroundColor=default;fontSize=16;fontColor=default;strokeColor=default;strokeWidth=2;fillColor=default;" parent="WIyWlLk6GJQsqaUBKTNV-1" edge="1">
          <mxGeometry width="50" height="50" relative="1" as="geometry">
            <mxPoint x="431" y="498" as="sourcePoint" />
            <mxPoint x="731" y="498" as="targetPoint" />
          </mxGeometry>
        </mxCell>
        <mxCell id="8WQcC468DqVq79VYUEjq-262" value="" style="endArrow=none;html=1;rounded=0;labelBackgroundColor=default;fontSize=16;fontColor=default;strokeColor=default;strokeWidth=2;fillColor=default;entryX=0.475;entryY=0.4;entryDx=0;entryDy=0;entryPerimeter=0;" parent="WIyWlLk6GJQsqaUBKTNV-1" edge="1">
          <mxGeometry width="50" height="50" relative="1" as="geometry">
            <mxPoint x="431" y="498" as="sourcePoint" />
            <mxPoint x="431" y="233" as="targetPoint" />
          </mxGeometry>
        </mxCell>
        <mxCell id="8WQcC468DqVq79VYUEjq-263" value="" style="endArrow=classic;html=1;rounded=0;labelBackgroundColor=default;fontSize=16;fontColor=default;strokeColor=default;strokeWidth=2;fillColor=default;" parent="WIyWlLk6GJQsqaUBKTNV-1" edge="1">
          <mxGeometry width="50" height="50" relative="1" as="geometry">
            <mxPoint x="431" y="233" as="sourcePoint" />
            <mxPoint x="511" y="232.5" as="targetPoint" />
          </mxGeometry>
        </mxCell>
        <mxCell id="8WQcC468DqVq79VYUEjq-264" value="" style="line;strokeWidth=2;html=1;fontSize=16;fontColor=default;fillColor=default;strokeColor=default;" parent="WIyWlLk6GJQsqaUBKTNV-1" vertex="1">
          <mxGeometry x="709.3199999999999" y="228" width="41.68" height="10" as="geometry" />
        </mxCell>
        <mxCell id="8WQcC468DqVq79VYUEjq-265" value="" style="endArrow=none;html=1;rounded=0;labelBackgroundColor=default;fontSize=16;fontColor=default;strokeColor=default;strokeWidth=2;fillColor=default;" parent="WIyWlLk6GJQsqaUBKTNV-1" edge="1">
          <mxGeometry width="50" height="50" relative="1" as="geometry">
            <mxPoint x="751" y="518" as="sourcePoint" />
            <mxPoint x="751" y="233" as="targetPoint" />
          </mxGeometry>
        </mxCell>
        <mxCell id="8WQcC468DqVq79VYUEjq-266" value="" style="endArrow=none;html=1;rounded=0;labelBackgroundColor=default;fontSize=16;fontColor=default;strokeColor=default;strokeWidth=2;fillColor=default;exitX=0.598;exitY=0.55;exitDx=0;exitDy=0;exitPerimeter=0;" parent="WIyWlLk6GJQsqaUBKTNV-1" edge="1">
          <mxGeometry width="50" height="50" relative="1" as="geometry">
            <mxPoint x="608.0699999999997" y="518" as="sourcePoint" />
            <mxPoint x="751" y="518" as="targetPoint" />
          </mxGeometry>
        </mxCell>
        <mxCell id="8WQcC468DqVq79VYUEjq-267" value="" style="endArrow=none;html=1;rounded=0;labelBackgroundColor=default;fontSize=16;fontColor=default;strokeColor=default;strokeWidth=2;fillColor=default;" parent="WIyWlLk6GJQsqaUBKTNV-1" edge="1">
          <mxGeometry width="50" height="50" relative="1" as="geometry">
            <mxPoint x="608" y="538" as="sourcePoint" />
            <mxPoint x="607.5699999999997" y="518" as="targetPoint" />
          </mxGeometry>
        </mxCell>
        <mxCell id="8WQcC468DqVq79VYUEjq-268" value="&lt;font style=&quot;font-size: 15px&quot;&gt;counter = 0&lt;br&gt;rowindex = 0&lt;br&gt;colindex = 0&lt;/font&gt;" style="rounded=0;whiteSpace=wrap;html=1;fontColor=default;strokeColor=default;fillColor=default;" parent="WIyWlLk6GJQsqaUBKTNV-1" vertex="1">
          <mxGeometry x="548.0699999999999" y="528" width="120" height="60" as="geometry" />
        </mxCell>
        <mxCell id="8WQcC468DqVq79VYUEjq-269" value="&lt;font style=&quot;font-size: 18px&quot;&gt;i = 0; i &amp;lt; row; i++&lt;/font&gt;" style="shape=hexagon;perimeter=hexagonPerimeter2;whiteSpace=wrap;html=1;fixedSize=1;fontSize=22;fontColor=default;strokeColor=default;fillColor=default;" parent="WIyWlLk6GJQsqaUBKTNV-1" vertex="1">
          <mxGeometry x="506.81999999999994" y="608" width="202.5" height="30" as="geometry" />
        </mxCell>
        <mxCell id="8WQcC468DqVq79VYUEjq-270" value="" style="edgeStyle=orthogonalEdgeStyle;rounded=0;orthogonalLoop=1;jettySize=auto;html=1;fontSize=20;strokeWidth=2;" parent="WIyWlLk6GJQsqaUBKTNV-1" source="8WQcC468DqVq79VYUEjq-271" target="8WQcC468DqVq79VYUEjq-269" edge="1">
          <mxGeometry relative="1" as="geometry" />
        </mxCell>
        <mxCell id="8WQcC468DqVq79VYUEjq-271" value="&lt;font style=&quot;font-size: 18px&quot;&gt;j = 0; j &amp;lt; col; j++&lt;/font&gt;" style="shape=hexagon;perimeter=hexagonPerimeter2;whiteSpace=wrap;html=1;fixedSize=1;fontSize=22;fontColor=default;strokeColor=default;fillColor=default;" parent="WIyWlLk6GJQsqaUBKTNV-1" vertex="1">
          <mxGeometry x="506.81999999999994" y="658" width="202.5" height="30" as="geometry" />
        </mxCell>
        <mxCell id="8WQcC468DqVq79VYUEjq-272" value="" style="endArrow=none;html=1;rounded=0;fontSize=15;fontColor=default;strokeColor=default;fillColor=default;labelBackgroundColor=default;endSize=6;strokeWidth=2;" parent="WIyWlLk6GJQsqaUBKTNV-1" edge="1">
          <mxGeometry width="50" height="50" relative="1" as="geometry">
            <mxPoint x="608" y="608" as="sourcePoint" />
            <mxPoint x="608" y="588" as="targetPoint" />
          </mxGeometry>
        </mxCell>
        <mxCell id="8WQcC468DqVq79VYUEjq-273" value="" style="endArrow=none;html=1;rounded=0;labelBackgroundColor=default;fontSize=15;fontColor=default;endSize=6;strokeColor=default;strokeWidth=2;fillColor=default;" parent="WIyWlLk6GJQsqaUBKTNV-1" edge="1">
          <mxGeometry width="50" height="50" relative="1" as="geometry">
            <mxPoint x="608" y="658" as="sourcePoint" />
            <mxPoint x="608" y="638" as="targetPoint" />
          </mxGeometry>
        </mxCell>
        <mxCell id="8WQcC468DqVq79VYUEjq-274" value="&lt;font style=&quot;font-size: 17px&quot;&gt;X[ i ][ j ] = max&amp;nbsp;&lt;/font&gt;" style="rhombus;whiteSpace=wrap;html=1;fontSize=19;fontColor=default;strokeColor=default;fillColor=default;" parent="WIyWlLk6GJQsqaUBKTNV-1" vertex="1">
          <mxGeometry x="525.5699999999999" y="708" width="165.86" height="70" as="geometry" />
        </mxCell>
        <mxCell id="8WQcC468DqVq79VYUEjq-275" value="" style="endArrow=none;html=1;rounded=0;labelBackgroundColor=default;fontSize=15;fontColor=default;endSize=6;strokeColor=default;strokeWidth=2;fillColor=default;" parent="WIyWlLk6GJQsqaUBKTNV-1" edge="1">
          <mxGeometry width="50" height="50" relative="1" as="geometry">
            <mxPoint x="608" y="708" as="sourcePoint" />
            <mxPoint x="608" y="688" as="targetPoint" />
          </mxGeometry>
        </mxCell>
        <mxCell id="8WQcC468DqVq79VYUEjq-276" value="" style="endArrow=none;html=1;rounded=0;labelBackgroundColor=default;fontSize=15;fontColor=default;endSize=6;strokeColor=default;strokeWidth=2;fillColor=default;" parent="WIyWlLk6GJQsqaUBKTNV-1" edge="1">
          <mxGeometry width="50" height="50" relative="1" as="geometry">
            <mxPoint x="608" y="808" as="sourcePoint" />
            <mxPoint x="607.5699999999997" y="778" as="targetPoint" />
          </mxGeometry>
        </mxCell>
        <mxCell id="8WQcC468DqVq79VYUEjq-277" value="&lt;font style=&quot;font-size: 15px&quot;&gt;counter ++&lt;br&gt;rowindex = i&lt;br&gt;colindex = j&lt;/font&gt;" style="rounded=0;whiteSpace=wrap;html=1;fontColor=default;strokeColor=default;fillColor=default;" parent="WIyWlLk6GJQsqaUBKTNV-1" vertex="1">
          <mxGeometry x="548.0699999999999" y="808" width="120" height="60" as="geometry" />
        </mxCell>
        <mxCell id="8WQcC468DqVq79VYUEjq-278" value="" style="line;strokeWidth=2;html=1;fontSize=15;fontColor=default;fillColor=default;strokeColor=default;labelBackgroundColor=default;" parent="WIyWlLk6GJQsqaUBKTNV-1" vertex="1">
          <mxGeometry x="691.4300000000001" y="738" width="19.57" height="10" as="geometry" />
        </mxCell>
        <mxCell id="8WQcC468DqVq79VYUEjq-279" value="" style="endArrow=none;html=1;rounded=0;labelBackgroundColor=default;fontSize=15;fontColor=default;endSize=6;strokeColor=default;strokeWidth=2;fillColor=default;entryX=0.514;entryY=0.625;entryDx=0;entryDy=0;entryPerimeter=0;" parent="WIyWlLk6GJQsqaUBKTNV-1" edge="1">
          <mxGeometry width="50" height="50" relative="1" as="geometry">
            <mxPoint x="711" y="888" as="sourcePoint" />
            <mxPoint x="711.4300000000003" y="743" as="targetPoint" />
          </mxGeometry>
        </mxCell>
        <mxCell id="8WQcC468DqVq79VYUEjq-280" value="" style="endArrow=none;html=1;rounded=0;labelBackgroundColor=default;fontSize=15;fontColor=default;endSize=6;strokeColor=default;strokeWidth=2;fillColor=default;" parent="WIyWlLk6GJQsqaUBKTNV-1" edge="1">
          <mxGeometry width="50" height="50" relative="1" as="geometry">
            <mxPoint x="451" y="888" as="sourcePoint" />
            <mxPoint x="709.75" y="888" as="targetPoint" />
          </mxGeometry>
        </mxCell>
        <mxCell id="8WQcC468DqVq79VYUEjq-281" value="" style="endArrow=none;html=1;rounded=0;labelBackgroundColor=default;fontSize=15;fontColor=default;endSize=6;strokeColor=default;strokeWidth=2;fillColor=default;" parent="WIyWlLk6GJQsqaUBKTNV-1" edge="1">
          <mxGeometry width="50" height="50" relative="1" as="geometry">
            <mxPoint x="608" y="888" as="sourcePoint" />
            <mxPoint x="607.5699999999997" y="868" as="targetPoint" />
          </mxGeometry>
        </mxCell>
        <mxCell id="8WQcC468DqVq79VYUEjq-282" value="" style="endArrow=none;html=1;rounded=0;labelBackgroundColor=default;fontSize=15;fontColor=default;endSize=6;strokeColor=default;strokeWidth=2;fillColor=default;entryX=0.475;entryY=0.4;entryDx=0;entryDy=0;entryPerimeter=0;" parent="WIyWlLk6GJQsqaUBKTNV-1" edge="1">
          <mxGeometry width="50" height="50" relative="1" as="geometry">
            <mxPoint x="451" y="888" as="sourcePoint" />
            <mxPoint x="451" y="673" as="targetPoint" />
          </mxGeometry>
        </mxCell>
        <mxCell id="8WQcC468DqVq79VYUEjq-283" value="" style="endArrow=classic;html=1;rounded=0;labelBackgroundColor=default;fontSize=15;fontColor=default;endSize=6;strokeColor=default;strokeWidth=2;fillColor=default;startArrow=none;" parent="WIyWlLk6GJQsqaUBKTNV-1" edge="1">
          <mxGeometry width="50" height="50" relative="1" as="geometry">
            <mxPoint x="451" y="673" as="sourcePoint" />
            <mxPoint x="511" y="672.5" as="targetPoint" />
          </mxGeometry>
        </mxCell>
        <mxCell id="8WQcC468DqVq79VYUEjq-284" value="" style="endArrow=none;html=1;rounded=0;labelBackgroundColor=default;fontSize=15;fontColor=default;endSize=6;strokeColor=default;strokeWidth=2;fillColor=default;" parent="WIyWlLk6GJQsqaUBKTNV-1" edge="1">
          <mxGeometry width="50" height="50" relative="1" as="geometry">
            <mxPoint x="451" y="673" as="sourcePoint" />
            <mxPoint x="451" y="673" as="targetPoint" />
          </mxGeometry>
        </mxCell>
        <mxCell id="8WQcC468DqVq79VYUEjq-285" value="" style="line;strokeWidth=2;html=1;labelBackgroundColor=default;fontSize=15;fontColor=default;fillColor=default;strokeColor=default;" parent="WIyWlLk6GJQsqaUBKTNV-1" vertex="1">
          <mxGeometry x="709.75" y="668" width="21.25" height="10" as="geometry" />
        </mxCell>
        <mxCell id="8WQcC468DqVq79VYUEjq-286" value="" style="endArrow=none;html=1;rounded=0;labelBackgroundColor=default;fontSize=15;fontColor=default;endSize=6;strokeColor=default;strokeWidth=2;fillColor=default;entryX=0.542;entryY=0.45;entryDx=0;entryDy=0;entryPerimeter=0;" parent="WIyWlLk6GJQsqaUBKTNV-1" edge="1">
          <mxGeometry width="50" height="50" relative="1" as="geometry">
            <mxPoint x="729" y="908" as="sourcePoint" />
            <mxPoint x="729.3199999999997" y="673" as="targetPoint" />
          </mxGeometry>
        </mxCell>
        <mxCell id="8WQcC468DqVq79VYUEjq-287" value="" style="endArrow=none;html=1;rounded=0;labelBackgroundColor=default;fontSize=15;fontColor=default;endSize=6;strokeColor=default;strokeWidth=2;fillColor=default;" parent="WIyWlLk6GJQsqaUBKTNV-1" edge="1">
          <mxGeometry width="50" height="50" relative="1" as="geometry">
            <mxPoint x="431" y="908" as="sourcePoint" />
            <mxPoint x="729.3200000000002" y="908" as="targetPoint" />
          </mxGeometry>
        </mxCell>
        <mxCell id="8WQcC468DqVq79VYUEjq-288" value="" style="endArrow=none;html=1;rounded=0;labelBackgroundColor=default;fontSize=15;fontColor=default;endSize=6;strokeColor=default;strokeWidth=2;fillColor=default;entryX=0.5;entryY=0.375;entryDx=0;entryDy=0;entryPerimeter=0;" parent="WIyWlLk6GJQsqaUBKTNV-1" edge="1">
          <mxGeometry width="50" height="50" relative="1" as="geometry">
            <mxPoint x="431" y="908" as="sourcePoint" />
            <mxPoint x="431" y="623" as="targetPoint" />
          </mxGeometry>
        </mxCell>
        <mxCell id="8WQcC468DqVq79VYUEjq-289" value="" style="endArrow=classic;html=1;rounded=0;labelBackgroundColor=default;fontSize=15;fontColor=default;endSize=6;strokeColor=default;strokeWidth=2;fillColor=default;" parent="WIyWlLk6GJQsqaUBKTNV-1" edge="1">
          <mxGeometry width="50" height="50" relative="1" as="geometry">
            <mxPoint x="431" y="622.5" as="sourcePoint" />
            <mxPoint x="511" y="622.5" as="targetPoint" />
          </mxGeometry>
        </mxCell>
        <mxCell id="8WQcC468DqVq79VYUEjq-290" value="" style="line;strokeWidth=2;html=1;labelBackgroundColor=default;fontSize=15;fontColor=default;fillColor=default;strokeColor=default;" parent="WIyWlLk6GJQsqaUBKTNV-1" vertex="1">
          <mxGeometry x="709.32" y="618" width="41.68" height="10" as="geometry" />
        </mxCell>
        <mxCell id="8WQcC468DqVq79VYUEjq-291" value="" style="endArrow=none;html=1;rounded=0;labelBackgroundColor=default;fontSize=15;fontColor=default;endSize=6;strokeColor=default;strokeWidth=2;fillColor=default;" parent="WIyWlLk6GJQsqaUBKTNV-1" edge="1">
          <mxGeometry width="50" height="50" relative="1" as="geometry">
            <mxPoint x="751" y="928" as="sourcePoint" />
            <mxPoint x="751" y="623" as="targetPoint" />
          </mxGeometry>
        </mxCell>
        <mxCell id="8WQcC468DqVq79VYUEjq-292" value="" style="endArrow=none;html=1;rounded=0;labelBackgroundColor=default;fontSize=15;fontColor=default;endSize=6;strokeColor=default;strokeWidth=2;fillColor=default;" parent="WIyWlLk6GJQsqaUBKTNV-1" edge="1">
          <mxGeometry width="50" height="50" relative="1" as="geometry">
            <mxPoint x="608.0699999999997" y="928" as="sourcePoint" />
            <mxPoint x="751" y="928" as="targetPoint" />
          </mxGeometry>
        </mxCell>
        <mxCell id="8WQcC468DqVq79VYUEjq-293" value="" style="endArrow=none;html=1;rounded=0;labelBackgroundColor=default;fontSize=15;fontColor=default;endSize=6;strokeColor=default;strokeWidth=2;fillColor=default;startArrow=none;" parent="WIyWlLk6GJQsqaUBKTNV-1" edge="1">
          <mxGeometry width="50" height="50" relative="1" as="geometry">
            <mxPoint x="608.0699999999997" y="928" as="sourcePoint" />
            <mxPoint x="608.0699999999997" y="928" as="targetPoint" />
          </mxGeometry>
        </mxCell>
        <mxCell id="8WQcC468DqVq79VYUEjq-294" value="" style="endArrow=none;html=1;rounded=0;labelBackgroundColor=default;fontSize=15;fontColor=default;endSize=6;strokeColor=default;strokeWidth=2;fillColor=default;" parent="WIyWlLk6GJQsqaUBKTNV-1" edge="1">
          <mxGeometry width="50" height="50" relative="1" as="geometry">
            <mxPoint x="608" y="958" as="sourcePoint" />
            <mxPoint x="608.0699999999997" y="928" as="targetPoint" />
          </mxGeometry>
        </mxCell>
        <mxCell id="8WQcC468DqVq79VYUEjq-295" value="&lt;font style=&quot;font-size: 17px&quot;&gt;counter &lt;/font&gt;&lt;font style=&quot;font-size: 20px&quot;&gt;!&lt;/font&gt;&lt;font style=&quot;font-size: 17px&quot;&gt;= 1&lt;/font&gt;" style="rhombus;whiteSpace=wrap;html=1;fontSize=19;fontColor=default;strokeColor=default;fillColor=default;" parent="WIyWlLk6GJQsqaUBKTNV-1" vertex="1">
          <mxGeometry x="525.14" y="948" width="165.86" height="70" as="geometry" />
        </mxCell>
        <mxCell id="8WQcC468DqVq79VYUEjq-296" value="" style="endArrow=none;html=1;rounded=0;labelBackgroundColor=default;fontSize=15;fontColor=default;endSize=6;strokeColor=default;strokeWidth=2;fillColor=default;exitX=0.5;exitY=0.425;exitDx=0;exitDy=0;exitPerimeter=0;" parent="WIyWlLk6GJQsqaUBKTNV-1" edge="1">
          <mxGeometry width="50" height="50" relative="1" as="geometry">
            <mxPoint x="311" y="472" as="sourcePoint" />
            <mxPoint x="311" y="128" as="targetPoint" />
          </mxGeometry>
        </mxCell>
        <mxCell id="8WQcC468DqVq79VYUEjq-297" value="" style="endArrow=none;html=1;rounded=0;labelBackgroundColor=default;fontSize=15;fontColor=default;endSize=6;strokeColor=default;strokeWidth=2;fillColor=default;entryX=0.5;entryY=1;entryDx=0;entryDy=0;startArrow=none;" parent="WIyWlLk6GJQsqaUBKTNV-1" edge="1">
          <mxGeometry width="50" height="50" relative="1" as="geometry">
            <mxPoint x="608.5" y="128" as="sourcePoint" />
            <mxPoint x="606" y="128" as="targetPoint" />
          </mxGeometry>
        </mxCell>
        <mxCell id="8WQcC468DqVq79VYUEjq-298" value="" style="line;strokeWidth=2;html=1;labelBackgroundColor=default;fontSize=15;fontColor=default;fillColor=default;strokeColor=default;" parent="WIyWlLk6GJQsqaUBKTNV-1" vertex="1">
          <mxGeometry x="-29" y="978" width="554.57" height="10" as="geometry" />
        </mxCell>
        <mxCell id="8WQcC468DqVq79VYUEjq-299" value="" style="endArrow=none;html=1;rounded=0;labelBackgroundColor=default;fontSize=15;fontColor=default;endSize=6;strokeColor=default;strokeWidth=2;fillColor=default;exitX=0.425;exitY=0.425;exitDx=0;exitDy=0;exitPerimeter=0;" parent="WIyWlLk6GJQsqaUBKTNV-1" edge="1">
          <mxGeometry width="50" height="50" relative="1" as="geometry">
            <mxPoint x="-29" y="983" as="sourcePoint" />
            <mxPoint x="-29" y="448" as="targetPoint" />
          </mxGeometry>
        </mxCell>
        <mxCell id="8WQcC468DqVq79VYUEjq-300" value="" style="endArrow=classic;html=1;rounded=0;labelBackgroundColor=default;fontSize=15;fontColor=default;endSize=6;strokeColor=default;strokeWidth=2;fillColor=default;startArrow=none;" parent="WIyWlLk6GJQsqaUBKTNV-1" edge="1">
          <mxGeometry width="50" height="50" relative="1" as="geometry">
            <mxPoint x="-29" y="448" as="sourcePoint" />
            <mxPoint x="171" y="447.5" as="targetPoint" />
          </mxGeometry>
        </mxCell>
        <mxCell id="8WQcC468DqVq79VYUEjq-301" value="" style="endArrow=none;html=1;rounded=0;labelBackgroundColor=default;fontSize=16;fontColor=default;strokeColor=default;strokeWidth=2;fillColor=default;" parent="WIyWlLk6GJQsqaUBKTNV-1" edge="1">
          <mxGeometry width="50" height="50" relative="1" as="geometry">
            <mxPoint x="269.75" y="471.5" as="sourcePoint" />
            <mxPoint x="311.42999999999984" y="472" as="targetPoint" />
          </mxGeometry>
        </mxCell>
        <mxCell id="8WQcC468DqVq79VYUEjq-302" value="" style="endArrow=none;html=1;rounded=0;labelBackgroundColor=default;fontSize=20;fontColor=default;endSize=6;strokeColor=default;strokeWidth=2;fillColor=default;" parent="WIyWlLk6GJQsqaUBKTNV-1" edge="1">
          <mxGeometry width="50" height="50" relative="1" as="geometry">
            <mxPoint x="168" y="458" as="sourcePoint" />
            <mxPoint x="168" y="427" as="targetPoint" />
          </mxGeometry>
        </mxCell>
        <mxCell id="8WQcC468DqVq79VYUEjq-303" value="" style="endArrow=none;html=1;rounded=0;labelBackgroundColor=default;fontSize=15;fontColor=default;endSize=6;strokeColor=default;strokeWidth=2;fillColor=default;" parent="WIyWlLk6GJQsqaUBKTNV-1" edge="1">
          <mxGeometry width="50" height="50" relative="1" as="geometry">
            <mxPoint x="-29" y="447" as="sourcePoint" />
            <mxPoint x="-29" y="448" as="targetPoint" />
          </mxGeometry>
        </mxCell>
        <mxCell id="8WQcC468DqVq79VYUEjq-304" value="A" style="ellipse;shape=doubleEllipse;whiteSpace=wrap;html=1;aspect=fixed;labelBackgroundColor=default;fontSize=20;fontColor=default;strokeColor=default;fillColor=default;" parent="WIyWlLk6GJQsqaUBKTNV-1" vertex="1">
          <mxGeometry x="588.5" y="1038" width="40" height="40" as="geometry" />
        </mxCell>
        <mxCell id="8WQcC468DqVq79VYUEjq-305" value="" style="endArrow=none;html=1;rounded=0;labelBackgroundColor=default;fontSize=20;fontColor=default;endSize=6;strokeColor=default;strokeWidth=2;fillColor=default;" parent="WIyWlLk6GJQsqaUBKTNV-1" edge="1">
          <mxGeometry width="50" height="50" relative="1" as="geometry">
            <mxPoint x="608" y="1038" as="sourcePoint" />
            <mxPoint x="608" y="1018" as="targetPoint" />
          </mxGeometry>
        </mxCell>
        <mxCell id="8WQcC468DqVq79VYUEjq-306" value="" style="shape=curlyBracket;whiteSpace=wrap;html=1;rounded=1;labelBackgroundColor=default;fontSize=20;fontColor=default;strokeColor=default;fillColor=default;" parent="WIyWlLk6GJQsqaUBKTNV-1" vertex="1">
          <mxGeometry x="-69" y="128" width="20" height="290" as="geometry" />
        </mxCell>
        <mxCell id="8WQcC468DqVq79VYUEjq-307" value="1" style="ellipse;whiteSpace=wrap;html=1;aspect=fixed;labelBackgroundColor=default;fontSize=20;fontColor=default;strokeColor=default;fillColor=default;" parent="WIyWlLk6GJQsqaUBKTNV-1" vertex="1">
          <mxGeometry x="-109" y="255.5" width="35" height="35" as="geometry" />
        </mxCell>
        <mxCell id="8WQcC468DqVq79VYUEjq-308" value="" style="shape=curlyBracket;whiteSpace=wrap;html=1;rounded=1;labelBackgroundColor=default;fontSize=20;fontColor=default;strokeColor=default;fillColor=default;" parent="WIyWlLk6GJQsqaUBKTNV-1" vertex="1">
          <mxGeometry x="-69" y="438" width="20" height="290" as="geometry" />
        </mxCell>
        <mxCell id="8WQcC468DqVq79VYUEjq-309" value="2" style="ellipse;whiteSpace=wrap;html=1;aspect=fixed;labelBackgroundColor=default;fontSize=20;fontColor=default;strokeColor=default;fillColor=default;" parent="WIyWlLk6GJQsqaUBKTNV-1" vertex="1">
          <mxGeometry x="-109" y="565.5" width="35" height="35" as="geometry" />
        </mxCell>
        <mxCell id="8WQcC468DqVq79VYUEjq-310" value="" style="shape=curlyBracket;whiteSpace=wrap;html=1;rounded=1;flipH=1;labelBackgroundColor=default;fontSize=20;fontColor=default;strokeColor=default;fillColor=default;" parent="WIyWlLk6GJQsqaUBKTNV-1" vertex="1">
          <mxGeometry x="781" y="158" width="20" height="340" as="geometry" />
        </mxCell>
        <mxCell id="8WQcC468DqVq79VYUEjq-311" value="3" style="ellipse;whiteSpace=wrap;html=1;aspect=fixed;labelBackgroundColor=default;fontSize=20;fontColor=default;strokeColor=default;fillColor=default;" parent="WIyWlLk6GJQsqaUBKTNV-1" vertex="1">
          <mxGeometry x="811" y="310.5" width="35" height="35" as="geometry" />
        </mxCell>
        <mxCell id="8WQcC468DqVq79VYUEjq-312" value="" style="shape=curlyBracket;whiteSpace=wrap;html=1;rounded=1;flipH=1;labelBackgroundColor=default;fontSize=20;fontColor=default;strokeColor=default;fillColor=default;" parent="WIyWlLk6GJQsqaUBKTNV-1" vertex="1">
          <mxGeometry x="781" y="518" width="20" height="390" as="geometry" />
        </mxCell>
        <mxCell id="8WQcC468DqVq79VYUEjq-313" value="4" style="ellipse;whiteSpace=wrap;html=1;aspect=fixed;labelBackgroundColor=default;fontSize=20;fontColor=default;strokeColor=default;fillColor=default;" parent="WIyWlLk6GJQsqaUBKTNV-1" vertex="1">
          <mxGeometry x="811" y="695.5" width="35" height="35" as="geometry" />
        </mxCell>
        <mxCell id="8WQcC468DqVq79VYUEjq-314" value="" style="shape=curlyBracket;whiteSpace=wrap;html=1;rounded=1;flipH=1;labelBackgroundColor=default;fontSize=20;fontColor=default;strokeColor=default;fillColor=default;" parent="WIyWlLk6GJQsqaUBKTNV-1" vertex="1">
          <mxGeometry x="781" y="938" width="20" height="90" as="geometry" />
        </mxCell>
        <mxCell id="8WQcC468DqVq79VYUEjq-315" value="5" style="ellipse;whiteSpace=wrap;html=1;aspect=fixed;labelBackgroundColor=default;fontSize=20;fontColor=default;strokeColor=default;fillColor=default;" parent="WIyWlLk6GJQsqaUBKTNV-1" vertex="1">
          <mxGeometry x="811" y="965.5" width="35" height="35" as="geometry" />
        </mxCell>
        <mxCell id="8WQcC468DqVq79VYUEjq-316" value="&lt;font style=&quot;font-size: 19px&quot;&gt;+&lt;/font&gt;" style="text;html=1;align=center;verticalAlign=middle;resizable=0;points=[];autosize=1;strokeColor=none;fillColor=none;" parent="WIyWlLk6GJQsqaUBKTNV-1" vertex="1">
          <mxGeometry x="73" y="221" width="21" height="20" as="geometry" />
        </mxCell>
        <mxCell id="8WQcC468DqVq79VYUEjq-317" value="-" style="text;html=1;align=center;verticalAlign=middle;resizable=0;points=[];autosize=1;strokeColor=none;fillColor=none;fontSize=19;" parent="WIyWlLk6GJQsqaUBKTNV-1" vertex="1">
          <mxGeometry x="171" y="271" width="16" height="27" as="geometry" />
        </mxCell>
        <mxCell id="8WQcC468DqVq79VYUEjq-318" value="&lt;font style=&quot;font-size: 19px&quot;&gt;+&lt;/font&gt;" style="text;html=1;align=center;verticalAlign=middle;resizable=0;points=[];autosize=1;strokeColor=none;fillColor=none;" parent="WIyWlLk6GJQsqaUBKTNV-1" vertex="1">
          <mxGeometry x="73" y="371" width="21" height="20" as="geometry" />
        </mxCell>
        <mxCell id="8WQcC468DqVq79VYUEjq-319" value="-" style="text;html=1;align=center;verticalAlign=middle;resizable=0;points=[];autosize=1;strokeColor=none;fillColor=none;fontSize=19;" parent="WIyWlLk6GJQsqaUBKTNV-1" vertex="1">
          <mxGeometry x="173" y="418" width="16" height="27" as="geometry" />
        </mxCell>
        <mxCell id="8WQcC468DqVq79VYUEjq-320" value="+" style="text;html=1;align=center;verticalAlign=middle;resizable=0;points=[];autosize=1;strokeColor=none;fillColor=none;fontSize=19;" parent="WIyWlLk6GJQsqaUBKTNV-1" vertex="1">
          <mxGeometry x="73" y="616" width="21" height="27" as="geometry" />
        </mxCell>
        <mxCell id="8WQcC468DqVq79VYUEjq-321" value="-" style="text;html=1;align=center;verticalAlign=middle;resizable=0;points=[];autosize=1;strokeColor=none;fillColor=none;fontSize=19;" parent="WIyWlLk6GJQsqaUBKTNV-1" vertex="1">
          <mxGeometry x="171" y="668" width="16" height="27" as="geometry" />
        </mxCell>
        <mxCell id="8WQcC468DqVq79VYUEjq-322" value="-" style="text;html=1;align=center;verticalAlign=middle;resizable=0;points=[];autosize=1;strokeColor=none;fillColor=none;fontSize=19;" parent="WIyWlLk6GJQsqaUBKTNV-1" vertex="1">
          <mxGeometry x="689.32" y="331" width="16" height="27" as="geometry" />
        </mxCell>
        <mxCell id="8WQcC468DqVq79VYUEjq-323" value="+" style="text;html=1;align=center;verticalAlign=middle;resizable=0;points=[];autosize=1;strokeColor=none;fillColor=none;fontSize=19;" parent="WIyWlLk6GJQsqaUBKTNV-1" vertex="1">
          <mxGeometry x="587.5" y="383" width="21" height="27" as="geometry" />
        </mxCell>
        <mxCell id="8WQcC468DqVq79VYUEjq-324" value="-" style="text;html=1;align=center;verticalAlign=middle;resizable=0;points=[];autosize=1;strokeColor=none;fillColor=none;fontSize=19;" parent="WIyWlLk6GJQsqaUBKTNV-1" vertex="1">
          <mxGeometry x="689.32" y="719" width="16" height="27" as="geometry" />
        </mxCell>
        <mxCell id="8WQcC468DqVq79VYUEjq-325" value="+" style="text;html=1;align=center;verticalAlign=middle;resizable=0;points=[];autosize=1;strokeColor=none;fillColor=none;fontSize=19;" parent="WIyWlLk6GJQsqaUBKTNV-1" vertex="1">
          <mxGeometry x="587.5" y="773" width="21" height="27" as="geometry" />
        </mxCell>
        <mxCell id="8WQcC468DqVq79VYUEjq-326" value="+" style="text;html=1;align=center;verticalAlign=middle;resizable=0;points=[];autosize=1;strokeColor=none;fillColor=none;fontSize=19;" parent="WIyWlLk6GJQsqaUBKTNV-1" vertex="1">
          <mxGeometry x="512" y="959" width="21" height="27" as="geometry" />
        </mxCell>
        <mxCell id="8WQcC468DqVq79VYUEjq-327" value="-" style="text;html=1;align=center;verticalAlign=middle;resizable=0;points=[];autosize=1;strokeColor=none;fillColor=none;fontSize=19;" parent="WIyWlLk6GJQsqaUBKTNV-1" vertex="1">
          <mxGeometry x="608.5" y="1009" width="16" height="27" as="geometry" />
        </mxCell>
        <mxCell id="8WQcC468DqVq79VYUEjq-328" value="" style="edgeStyle=orthogonalEdgeStyle;rounded=0;orthogonalLoop=1;jettySize=auto;html=1;fontSize=20;" parent="WIyWlLk6GJQsqaUBKTNV-1" target="8WQcC468DqVq79VYUEjq-240" edge="1">
          <mxGeometry relative="1" as="geometry">
            <mxPoint x="608.5" y="128" as="sourcePoint" />
          </mxGeometry>
        </mxCell>
        <mxCell id="8WQcC468DqVq79VYUEjq-329" value="" style="endArrow=none;html=1;rounded=0;labelBackgroundColor=default;fontSize=15;fontColor=default;endSize=6;strokeColor=default;strokeWidth=2;fillColor=default;entryDx=0;entryDy=0;" parent="WIyWlLk6GJQsqaUBKTNV-1" edge="1">
          <mxGeometry width="50" height="50" relative="1" as="geometry">
            <mxPoint x="311" y="128" as="sourcePoint" />
            <mxPoint x="608.5" y="128" as="targetPoint" />
          </mxGeometry>
        </mxCell>
        <mxCell id="8WQcC468DqVq79VYUEjq-330" value="A" style="ellipse;shape=doubleEllipse;whiteSpace=wrap;html=1;aspect=fixed;labelBackgroundColor=default;fontSize=20;fontColor=default;strokeColor=default;fillColor=default;" parent="WIyWlLk6GJQsqaUBKTNV-1" vertex="1">
          <mxGeometry x="366" y="1137" width="40" height="40" as="geometry" />
        </mxCell>
        <mxCell id="8WQcC468DqVq79VYUEjq-331" value="" style="endArrow=none;html=1;rounded=0;fontSize=20;strokeWidth=2;" parent="WIyWlLk6GJQsqaUBKTNV-1" edge="1">
          <mxGeometry width="50" height="50" relative="1" as="geometry">
            <mxPoint x="386" y="1210" as="sourcePoint" />
            <mxPoint x="385.5" y="1177" as="targetPoint" />
          </mxGeometry>
        </mxCell>
        <mxCell id="8WQcC468DqVq79VYUEjq-332" value="&lt;font style=&quot;font-size: 18px&quot;&gt;i = rowindex; i &amp;lt; row - 1; i++&lt;/font&gt;" style="shape=hexagon;perimeter=hexagonPerimeter2;whiteSpace=wrap;html=1;fixedSize=1;fontSize=22;fontColor=default;strokeColor=default;fillColor=default;" parent="WIyWlLk6GJQsqaUBKTNV-1" vertex="1">
          <mxGeometry x="257.7" y="1210" width="256.62" height="30" as="geometry" />
        </mxCell>
        <mxCell id="8WQcC468DqVq79VYUEjq-333" value="&lt;font style=&quot;font-size: 18px&quot;&gt;j = 0 ; j &amp;lt; col; j++&lt;/font&gt;" style="shape=hexagon;perimeter=hexagonPerimeter2;whiteSpace=wrap;html=1;fixedSize=1;fontSize=22;fontColor=default;strokeColor=default;fillColor=default;" parent="WIyWlLk6GJQsqaUBKTNV-1" vertex="1">
          <mxGeometry x="257.7" y="1260" width="256.62" height="30" as="geometry" />
        </mxCell>
        <mxCell id="8WQcC468DqVq79VYUEjq-334" value="" style="line;strokeWidth=2;direction=south;html=1;fontSize=20;" parent="WIyWlLk6GJQsqaUBKTNV-1" vertex="1">
          <mxGeometry x="381" y="1240" width="10" height="20" as="geometry" />
        </mxCell>
        <mxCell id="8WQcC468DqVq79VYUEjq-335" value="&lt;span style=&quot;font-size: 16px&quot;&gt;&amp;nbsp; X[ i ][ j ] =&amp;nbsp;&lt;/span&gt;&lt;span style=&quot;font-size: 16px&quot;&gt;X[ i + 1][ j ]&amp;nbsp;&lt;/span&gt;" style="rounded=0;whiteSpace=wrap;html=1;fontSize=20;" parent="WIyWlLk6GJQsqaUBKTNV-1" vertex="1">
          <mxGeometry x="304" y="1310" width="164" height="60" as="geometry" />
        </mxCell>
        <mxCell id="8WQcC468DqVq79VYUEjq-336" value="" style="line;strokeWidth=2;direction=south;html=1;fontSize=20;" parent="WIyWlLk6GJQsqaUBKTNV-1" vertex="1">
          <mxGeometry x="381" y="1290" width="10" height="20" as="geometry" />
        </mxCell>
        <mxCell id="8WQcC468DqVq79VYUEjq-337" value="" style="line;strokeWidth=2;direction=south;html=1;fontSize=20;" parent="WIyWlLk6GJQsqaUBKTNV-1" vertex="1">
          <mxGeometry x="381" y="1370" width="10" height="20" as="geometry" />
        </mxCell>
        <mxCell id="8WQcC468DqVq79VYUEjq-338" value="" style="endArrow=none;html=1;rounded=0;fontSize=20;strokeWidth=2;" parent="WIyWlLk6GJQsqaUBKTNV-1" edge="1">
          <mxGeometry width="50" height="50" relative="1" as="geometry">
            <mxPoint x="230" y="1390" as="sourcePoint" />
            <mxPoint x="386" y="1390" as="targetPoint" />
          </mxGeometry>
        </mxCell>
        <mxCell id="8WQcC468DqVq79VYUEjq-339" value="" style="endArrow=none;html=1;rounded=0;fontSize=20;strokeWidth=2;entryX=0.525;entryY=0.65;entryDx=0;entryDy=0;entryPerimeter=0;" parent="WIyWlLk6GJQsqaUBKTNV-1" edge="1">
          <mxGeometry width="50" height="50" relative="1" as="geometry">
            <mxPoint x="230" y="1390" as="sourcePoint" />
            <mxPoint x="231" y="1275" as="targetPoint" />
          </mxGeometry>
        </mxCell>
        <mxCell id="8WQcC468DqVq79VYUEjq-340" value="" style="endArrow=classic;html=1;rounded=0;fontSize=20;strokeWidth=2;startArrow=none;" parent="WIyWlLk6GJQsqaUBKTNV-1" source="8WQcC468DqVq79VYUEjq-342" edge="1">
          <mxGeometry width="50" height="50" relative="1" as="geometry">
            <mxPoint x="231" y="1275" as="sourcePoint" />
            <mxPoint x="263" y="1274.5" as="targetPoint" />
          </mxGeometry>
        </mxCell>
        <mxCell id="8WQcC468DqVq79VYUEjq-341" value="" style="endArrow=none;html=1;rounded=0;fontSize=20;strokeWidth=2;" parent="WIyWlLk6GJQsqaUBKTNV-1" edge="1">
          <mxGeometry width="50" height="50" relative="1" as="geometry">
            <mxPoint x="230" y="1275" as="sourcePoint" />
            <mxPoint x="231" y="1275" as="targetPoint" />
          </mxGeometry>
        </mxCell>
        <mxCell id="8WQcC468DqVq79VYUEjq-342" value="" style="line;strokeWidth=2;html=1;fontSize=20;" parent="WIyWlLk6GJQsqaUBKTNV-1" vertex="1">
          <mxGeometry x="230" y="1270" width="29" height="10" as="geometry" />
        </mxCell>
        <mxCell id="8WQcC468DqVq79VYUEjq-343" value="" style="endArrow=none;html=1;rounded=0;fontSize=20;strokeWidth=2;startArrow=none;" parent="WIyWlLk6GJQsqaUBKTNV-1" target="8WQcC468DqVq79VYUEjq-342" edge="1">
          <mxGeometry width="50" height="50" relative="1" as="geometry">
            <mxPoint x="231" y="1275" as="sourcePoint" />
            <mxPoint x="263" y="1274.5" as="targetPoint" />
          </mxGeometry>
        </mxCell>
        <mxCell id="8WQcC468DqVq79VYUEjq-344" value="" style="line;strokeWidth=2;html=1;fontSize=20;" parent="WIyWlLk6GJQsqaUBKTNV-1" vertex="1">
          <mxGeometry x="514.3199999999999" y="1270" width="35.68" height="10" as="geometry" />
        </mxCell>
        <mxCell id="8WQcC468DqVq79VYUEjq-345" value="" style="endArrow=none;html=1;rounded=0;fontSize=20;strokeWidth=2;entryX=1;entryY=0.5;entryDx=0;entryDy=0;entryPerimeter=0;" parent="WIyWlLk6GJQsqaUBKTNV-1" target="8WQcC468DqVq79VYUEjq-344" edge="1">
          <mxGeometry width="50" height="50" relative="1" as="geometry">
            <mxPoint x="550" y="1410" as="sourcePoint" />
            <mxPoint x="549" y="1290" as="targetPoint" />
          </mxGeometry>
        </mxCell>
        <mxCell id="8WQcC468DqVq79VYUEjq-346" value="" style="endArrow=none;html=1;rounded=0;fontSize=20;strokeWidth=2;" parent="WIyWlLk6GJQsqaUBKTNV-1" edge="1">
          <mxGeometry width="50" height="50" relative="1" as="geometry">
            <mxPoint x="210" y="1410" as="sourcePoint" />
            <mxPoint x="550" y="1410" as="targetPoint" />
          </mxGeometry>
        </mxCell>
        <mxCell id="8WQcC468DqVq79VYUEjq-347" value="" style="endArrow=none;html=1;rounded=0;fontSize=20;strokeWidth=2;entryX=0.55;entryY=0.675;entryDx=0;entryDy=0;entryPerimeter=0;" parent="WIyWlLk6GJQsqaUBKTNV-1" edge="1">
          <mxGeometry width="50" height="50" relative="1" as="geometry">
            <mxPoint x="210" y="1410" as="sourcePoint" />
            <mxPoint x="210" y="1225" as="targetPoint" />
          </mxGeometry>
        </mxCell>
        <mxCell id="8WQcC468DqVq79VYUEjq-348" value="" style="endArrow=classic;html=1;rounded=0;fontSize=20;strokeWidth=2;startArrow=none;" parent="WIyWlLk6GJQsqaUBKTNV-1" edge="1">
          <mxGeometry width="50" height="50" relative="1" as="geometry">
            <mxPoint x="210" y="1225" as="sourcePoint" />
            <mxPoint x="263" y="1224.5" as="targetPoint" />
          </mxGeometry>
        </mxCell>
        <mxCell id="8WQcC468DqVq79VYUEjq-349" value="" style="endArrow=none;html=1;rounded=0;fontSize=20;strokeWidth=2;" parent="WIyWlLk6GJQsqaUBKTNV-1" edge="1">
          <mxGeometry width="50" height="50" relative="1" as="geometry">
            <mxPoint x="210" y="1225" as="sourcePoint" />
            <mxPoint x="210" y="1225" as="targetPoint" />
          </mxGeometry>
        </mxCell>
        <mxCell id="8WQcC468DqVq79VYUEjq-350" value="" style="line;strokeWidth=2;html=1;fontSize=20;" parent="WIyWlLk6GJQsqaUBKTNV-1" vertex="1">
          <mxGeometry x="514.3199999999999" y="1220" width="55.68" height="10" as="geometry" />
        </mxCell>
        <mxCell id="8WQcC468DqVq79VYUEjq-351" value="" style="endArrow=none;html=1;rounded=0;fontSize=20;strokeWidth=2;" parent="WIyWlLk6GJQsqaUBKTNV-1" edge="1">
          <mxGeometry width="50" height="50" relative="1" as="geometry">
            <mxPoint x="570" y="1430" as="sourcePoint" />
            <mxPoint x="570" y="1225" as="targetPoint" />
          </mxGeometry>
        </mxCell>
        <mxCell id="8WQcC468DqVq79VYUEjq-352" value="" style="endArrow=none;html=1;rounded=0;fontSize=20;strokeWidth=2;exitX=0.45;exitY=0.625;exitDx=0;exitDy=0;exitPerimeter=0;" parent="WIyWlLk6GJQsqaUBKTNV-1" edge="1">
          <mxGeometry width="50" height="50" relative="1" as="geometry">
            <mxPoint x="385" y="1430" as="sourcePoint" />
            <mxPoint x="570" y="1430" as="targetPoint" />
          </mxGeometry>
        </mxCell>
        <mxCell id="8WQcC468DqVq79VYUEjq-353" value="" style="endArrow=none;html=1;rounded=0;fontSize=20;strokeWidth=2;startArrow=none;" parent="WIyWlLk6GJQsqaUBKTNV-1" edge="1">
          <mxGeometry width="50" height="50" relative="1" as="geometry">
            <mxPoint x="385" y="1430" as="sourcePoint" />
            <mxPoint x="384.5" y="1430" as="targetPoint" />
          </mxGeometry>
        </mxCell>
        <mxCell id="8WQcC468DqVq79VYUEjq-354" value="&lt;font style=&quot;font-size: 18px&quot;&gt;j = colindex; j &amp;lt; col - 1; j++&lt;/font&gt;" style="shape=hexagon;perimeter=hexagonPerimeter2;whiteSpace=wrap;html=1;fixedSize=1;fontSize=22;fontColor=default;strokeColor=default;fillColor=default;" parent="WIyWlLk6GJQsqaUBKTNV-1" vertex="1">
          <mxGeometry x="256.7" y="1463" width="256.62" height="30" as="geometry" />
        </mxCell>
        <mxCell id="8WQcC468DqVq79VYUEjq-355" value="&lt;font style=&quot;font-size: 18px&quot;&gt;i = 0 ; i &amp;lt; row; i++&lt;/font&gt;" style="shape=hexagon;perimeter=hexagonPerimeter2;whiteSpace=wrap;html=1;fixedSize=1;fontSize=22;fontColor=default;strokeColor=default;fillColor=default;" parent="WIyWlLk6GJQsqaUBKTNV-1" vertex="1">
          <mxGeometry x="256.7" y="1513" width="256.62" height="30" as="geometry" />
        </mxCell>
        <mxCell id="8WQcC468DqVq79VYUEjq-356" value="" style="line;strokeWidth=2;direction=south;html=1;fontSize=20;" parent="WIyWlLk6GJQsqaUBKTNV-1" vertex="1">
          <mxGeometry x="380" y="1493" width="10" height="20" as="geometry" />
        </mxCell>
        <mxCell id="8WQcC468DqVq79VYUEjq-357" value="&lt;span style=&quot;font-size: 16px&quot;&gt;&amp;nbsp;X[ i ][ j ] =&amp;nbsp;&lt;/span&gt;&lt;span style=&quot;font-size: 16px&quot;&gt;X[ i ][ j + 1]&amp;nbsp;&lt;/span&gt;" style="rounded=0;whiteSpace=wrap;html=1;fontSize=20;" parent="WIyWlLk6GJQsqaUBKTNV-1" vertex="1">
          <mxGeometry x="303" y="1563" width="164" height="60" as="geometry" />
        </mxCell>
        <mxCell id="8WQcC468DqVq79VYUEjq-358" value="" style="line;strokeWidth=2;direction=south;html=1;fontSize=20;" parent="WIyWlLk6GJQsqaUBKTNV-1" vertex="1">
          <mxGeometry x="380" y="1543" width="10" height="20" as="geometry" />
        </mxCell>
        <mxCell id="8WQcC468DqVq79VYUEjq-359" value="" style="line;strokeWidth=2;direction=south;html=1;fontSize=20;" parent="WIyWlLk6GJQsqaUBKTNV-1" vertex="1">
          <mxGeometry x="380" y="1623" width="10" height="20" as="geometry" />
        </mxCell>
        <mxCell id="8WQcC468DqVq79VYUEjq-360" value="" style="endArrow=none;html=1;rounded=0;fontSize=20;strokeWidth=2;" parent="WIyWlLk6GJQsqaUBKTNV-1" edge="1">
          <mxGeometry width="50" height="50" relative="1" as="geometry">
            <mxPoint x="229" y="1643" as="sourcePoint" />
            <mxPoint x="385" y="1643" as="targetPoint" />
          </mxGeometry>
        </mxCell>
        <mxCell id="8WQcC468DqVq79VYUEjq-361" value="" style="endArrow=none;html=1;rounded=0;fontSize=20;strokeWidth=2;entryX=0.525;entryY=0.65;entryDx=0;entryDy=0;entryPerimeter=0;" parent="WIyWlLk6GJQsqaUBKTNV-1" edge="1">
          <mxGeometry width="50" height="50" relative="1" as="geometry">
            <mxPoint x="229" y="1643" as="sourcePoint" />
            <mxPoint x="230" y="1528" as="targetPoint" />
          </mxGeometry>
        </mxCell>
        <mxCell id="8WQcC468DqVq79VYUEjq-362" value="" style="endArrow=classic;html=1;rounded=0;fontSize=20;strokeWidth=2;startArrow=none;" parent="WIyWlLk6GJQsqaUBKTNV-1" source="8WQcC468DqVq79VYUEjq-364" edge="1">
          <mxGeometry width="50" height="50" relative="1" as="geometry">
            <mxPoint x="230" y="1528" as="sourcePoint" />
            <mxPoint x="262" y="1527.5" as="targetPoint" />
          </mxGeometry>
        </mxCell>
        <mxCell id="8WQcC468DqVq79VYUEjq-363" value="" style="endArrow=none;html=1;rounded=0;fontSize=20;strokeWidth=2;" parent="WIyWlLk6GJQsqaUBKTNV-1" edge="1">
          <mxGeometry width="50" height="50" relative="1" as="geometry">
            <mxPoint x="229" y="1528" as="sourcePoint" />
            <mxPoint x="230" y="1528" as="targetPoint" />
          </mxGeometry>
        </mxCell>
        <mxCell id="8WQcC468DqVq79VYUEjq-364" value="" style="line;strokeWidth=2;html=1;fontSize=20;" parent="WIyWlLk6GJQsqaUBKTNV-1" vertex="1">
          <mxGeometry x="229" y="1523" width="29" height="10" as="geometry" />
        </mxCell>
        <mxCell id="8WQcC468DqVq79VYUEjq-365" value="" style="endArrow=none;html=1;rounded=0;fontSize=20;strokeWidth=2;startArrow=none;" parent="WIyWlLk6GJQsqaUBKTNV-1" target="8WQcC468DqVq79VYUEjq-364" edge="1">
          <mxGeometry width="50" height="50" relative="1" as="geometry">
            <mxPoint x="230" y="1528" as="sourcePoint" />
            <mxPoint x="262" y="1527.5" as="targetPoint" />
          </mxGeometry>
        </mxCell>
        <mxCell id="8WQcC468DqVq79VYUEjq-366" value="" style="line;strokeWidth=2;html=1;fontSize=20;" parent="WIyWlLk6GJQsqaUBKTNV-1" vertex="1">
          <mxGeometry x="513.3199999999999" y="1523" width="35.68" height="10" as="geometry" />
        </mxCell>
        <mxCell id="8WQcC468DqVq79VYUEjq-367" value="" style="endArrow=none;html=1;rounded=0;fontSize=20;strokeWidth=2;entryX=1;entryY=0.5;entryDx=0;entryDy=0;entryPerimeter=0;" parent="WIyWlLk6GJQsqaUBKTNV-1" target="8WQcC468DqVq79VYUEjq-366" edge="1">
          <mxGeometry width="50" height="50" relative="1" as="geometry">
            <mxPoint x="549" y="1663" as="sourcePoint" />
            <mxPoint x="548" y="1543" as="targetPoint" />
          </mxGeometry>
        </mxCell>
        <mxCell id="8WQcC468DqVq79VYUEjq-368" value="" style="endArrow=none;html=1;rounded=0;fontSize=20;strokeWidth=2;" parent="WIyWlLk6GJQsqaUBKTNV-1" edge="1">
          <mxGeometry width="50" height="50" relative="1" as="geometry">
            <mxPoint x="209" y="1663" as="sourcePoint" />
            <mxPoint x="549" y="1663" as="targetPoint" />
          </mxGeometry>
        </mxCell>
        <mxCell id="8WQcC468DqVq79VYUEjq-369" value="" style="endArrow=none;html=1;rounded=0;fontSize=20;strokeWidth=2;entryX=0.55;entryY=0.675;entryDx=0;entryDy=0;entryPerimeter=0;" parent="WIyWlLk6GJQsqaUBKTNV-1" edge="1">
          <mxGeometry width="50" height="50" relative="1" as="geometry">
            <mxPoint x="209" y="1663" as="sourcePoint" />
            <mxPoint x="209" y="1478" as="targetPoint" />
          </mxGeometry>
        </mxCell>
        <mxCell id="8WQcC468DqVq79VYUEjq-370" value="" style="endArrow=classic;html=1;rounded=0;fontSize=20;strokeWidth=2;startArrow=none;" parent="WIyWlLk6GJQsqaUBKTNV-1" edge="1">
          <mxGeometry width="50" height="50" relative="1" as="geometry">
            <mxPoint x="209" y="1478" as="sourcePoint" />
            <mxPoint x="262" y="1477.5" as="targetPoint" />
          </mxGeometry>
        </mxCell>
        <mxCell id="8WQcC468DqVq79VYUEjq-371" value="" style="endArrow=none;html=1;rounded=0;fontSize=20;strokeWidth=2;" parent="WIyWlLk6GJQsqaUBKTNV-1" edge="1">
          <mxGeometry width="50" height="50" relative="1" as="geometry">
            <mxPoint x="209" y="1478" as="sourcePoint" />
            <mxPoint x="209" y="1478" as="targetPoint" />
          </mxGeometry>
        </mxCell>
        <mxCell id="8WQcC468DqVq79VYUEjq-372" value="" style="line;strokeWidth=2;html=1;fontSize=20;" parent="WIyWlLk6GJQsqaUBKTNV-1" vertex="1">
          <mxGeometry x="513.3199999999999" y="1473" width="55.68" height="10" as="geometry" />
        </mxCell>
        <mxCell id="8WQcC468DqVq79VYUEjq-373" value="" style="endArrow=none;html=1;rounded=0;fontSize=20;strokeWidth=2;" parent="WIyWlLk6GJQsqaUBKTNV-1" edge="1">
          <mxGeometry width="50" height="50" relative="1" as="geometry">
            <mxPoint x="569" y="1690" as="sourcePoint" />
            <mxPoint x="569" y="1478" as="targetPoint" />
          </mxGeometry>
        </mxCell>
        <mxCell id="8WQcC468DqVq79VYUEjq-374" value="" style="endArrow=none;html=1;rounded=0;fontSize=20;strokeWidth=2;" parent="WIyWlLk6GJQsqaUBKTNV-1" edge="1">
          <mxGeometry width="50" height="50" relative="1" as="geometry">
            <mxPoint x="385" y="1463" as="sourcePoint" />
            <mxPoint x="385" y="1430" as="targetPoint" />
          </mxGeometry>
        </mxCell>
        <mxCell id="8WQcC468DqVq79VYUEjq-375" value="" style="endArrow=none;html=1;rounded=0;fontSize=20;strokeWidth=2;exitX=0.575;exitY=0.525;exitDx=0;exitDy=0;exitPerimeter=0;" parent="WIyWlLk6GJQsqaUBKTNV-1" edge="1">
          <mxGeometry width="50" height="50" relative="1" as="geometry">
            <mxPoint x="385" y="1690" as="sourcePoint" />
            <mxPoint x="570" y="1690" as="targetPoint" />
          </mxGeometry>
        </mxCell>
        <mxCell id="8WQcC468DqVq79VYUEjq-376" value="" style="endArrow=none;html=1;rounded=0;fontSize=20;strokeWidth=2;startArrow=none;" parent="WIyWlLk6GJQsqaUBKTNV-1" edge="1">
          <mxGeometry width="50" height="50" relative="1" as="geometry">
            <mxPoint x="385" y="1690" as="sourcePoint" />
            <mxPoint x="384.5" y="1690" as="targetPoint" />
          </mxGeometry>
        </mxCell>
        <mxCell id="8WQcC468DqVq79VYUEjq-377" value="" style="endArrow=none;html=1;rounded=0;fontSize=20;strokeWidth=2;" parent="WIyWlLk6GJQsqaUBKTNV-1" edge="1">
          <mxGeometry width="50" height="50" relative="1" as="geometry">
            <mxPoint x="385" y="1730" as="sourcePoint" />
            <mxPoint x="385" y="1690" as="targetPoint" />
          </mxGeometry>
        </mxCell>
        <mxCell id="8WQcC468DqVq79VYUEjq-378" value="&lt;font style=&quot;font-size: 18px&quot;&gt;i = 0 ; i &amp;lt; row - 1; j++&lt;/font&gt;" style="shape=hexagon;perimeter=hexagonPerimeter2;whiteSpace=wrap;html=1;fixedSize=1;fontSize=22;fontColor=default;strokeColor=default;fillColor=default;" parent="WIyWlLk6GJQsqaUBKTNV-1" vertex="1">
          <mxGeometry x="257.7" y="1730" width="256.62" height="30" as="geometry" />
        </mxCell>
        <mxCell id="8WQcC468DqVq79VYUEjq-379" value="&lt;font style=&quot;font-size: 18px&quot;&gt;j = 0 ; j &amp;lt; col - 1 ; j++&lt;/font&gt;" style="shape=hexagon;perimeter=hexagonPerimeter2;whiteSpace=wrap;html=1;fixedSize=1;fontSize=22;fontColor=default;strokeColor=default;fillColor=default;" parent="WIyWlLk6GJQsqaUBKTNV-1" vertex="1">
          <mxGeometry x="257.7" y="1780" width="256.62" height="30" as="geometry" />
        </mxCell>
        <mxCell id="8WQcC468DqVq79VYUEjq-380" value="" style="line;strokeWidth=2;direction=south;html=1;fontSize=20;" parent="WIyWlLk6GJQsqaUBKTNV-1" vertex="1">
          <mxGeometry x="381" y="1760" width="10" height="20" as="geometry" />
        </mxCell>
        <mxCell id="8WQcC468DqVq79VYUEjq-381" value="" style="line;strokeWidth=2;direction=south;html=1;fontSize=20;" parent="WIyWlLk6GJQsqaUBKTNV-1" vertex="1">
          <mxGeometry x="381" y="1810" width="10" height="20" as="geometry" />
        </mxCell>
        <mxCell id="8WQcC468DqVq79VYUEjq-382" value="" style="line;strokeWidth=2;direction=south;html=1;fontSize=20;" parent="WIyWlLk6GJQsqaUBKTNV-1" vertex="1">
          <mxGeometry x="381" y="1860" width="10" height="50" as="geometry" />
        </mxCell>
        <mxCell id="8WQcC468DqVq79VYUEjq-383" value="" style="endArrow=none;html=1;rounded=0;fontSize=20;strokeWidth=2;" parent="WIyWlLk6GJQsqaUBKTNV-1" edge="1">
          <mxGeometry width="50" height="50" relative="1" as="geometry">
            <mxPoint x="230" y="1910" as="sourcePoint" />
            <mxPoint x="386" y="1910" as="targetPoint" />
          </mxGeometry>
        </mxCell>
        <mxCell id="8WQcC468DqVq79VYUEjq-384" value="" style="endArrow=none;html=1;rounded=0;fontSize=20;strokeWidth=2;entryX=0.525;entryY=0.65;entryDx=0;entryDy=0;entryPerimeter=0;" parent="WIyWlLk6GJQsqaUBKTNV-1" edge="1">
          <mxGeometry width="50" height="50" relative="1" as="geometry">
            <mxPoint x="230" y="1910" as="sourcePoint" />
            <mxPoint x="231" y="1795" as="targetPoint" />
          </mxGeometry>
        </mxCell>
        <mxCell id="8WQcC468DqVq79VYUEjq-385" value="" style="endArrow=classic;html=1;rounded=0;fontSize=20;strokeWidth=2;startArrow=none;" parent="WIyWlLk6GJQsqaUBKTNV-1" source="8WQcC468DqVq79VYUEjq-387" edge="1">
          <mxGeometry width="50" height="50" relative="1" as="geometry">
            <mxPoint x="231" y="1795" as="sourcePoint" />
            <mxPoint x="263" y="1794.5" as="targetPoint" />
          </mxGeometry>
        </mxCell>
        <mxCell id="8WQcC468DqVq79VYUEjq-386" value="" style="endArrow=none;html=1;rounded=0;fontSize=20;strokeWidth=2;" parent="WIyWlLk6GJQsqaUBKTNV-1" edge="1">
          <mxGeometry width="50" height="50" relative="1" as="geometry">
            <mxPoint x="230" y="1795" as="sourcePoint" />
            <mxPoint x="231" y="1795" as="targetPoint" />
          </mxGeometry>
        </mxCell>
        <mxCell id="8WQcC468DqVq79VYUEjq-387" value="" style="line;strokeWidth=2;html=1;fontSize=20;" parent="WIyWlLk6GJQsqaUBKTNV-1" vertex="1">
          <mxGeometry x="230" y="1790" width="29" height="10" as="geometry" />
        </mxCell>
        <mxCell id="8WQcC468DqVq79VYUEjq-388" value="" style="endArrow=none;html=1;rounded=0;fontSize=20;strokeWidth=2;startArrow=none;" parent="WIyWlLk6GJQsqaUBKTNV-1" target="8WQcC468DqVq79VYUEjq-387" edge="1">
          <mxGeometry width="50" height="50" relative="1" as="geometry">
            <mxPoint x="231" y="1795" as="sourcePoint" />
            <mxPoint x="263" y="1794.5" as="targetPoint" />
          </mxGeometry>
        </mxCell>
        <mxCell id="8WQcC468DqVq79VYUEjq-389" value="" style="line;strokeWidth=2;html=1;fontSize=20;" parent="WIyWlLk6GJQsqaUBKTNV-1" vertex="1">
          <mxGeometry x="514.3199999999999" y="1790" width="35.68" height="10" as="geometry" />
        </mxCell>
        <mxCell id="8WQcC468DqVq79VYUEjq-390" value="" style="endArrow=none;html=1;rounded=0;fontSize=20;strokeWidth=2;entryX=1;entryY=0.5;entryDx=0;entryDy=0;entryPerimeter=0;" parent="WIyWlLk6GJQsqaUBKTNV-1" target="8WQcC468DqVq79VYUEjq-389" edge="1">
          <mxGeometry width="50" height="50" relative="1" as="geometry">
            <mxPoint x="550" y="1930" as="sourcePoint" />
            <mxPoint x="549" y="1810" as="targetPoint" />
          </mxGeometry>
        </mxCell>
        <mxCell id="8WQcC468DqVq79VYUEjq-391" value="" style="endArrow=none;html=1;rounded=0;fontSize=20;strokeWidth=2;" parent="WIyWlLk6GJQsqaUBKTNV-1" edge="1">
          <mxGeometry width="50" height="50" relative="1" as="geometry">
            <mxPoint x="210" y="1930" as="sourcePoint" />
            <mxPoint x="550" y="1930" as="targetPoint" />
          </mxGeometry>
        </mxCell>
        <mxCell id="8WQcC468DqVq79VYUEjq-392" value="" style="endArrow=none;html=1;rounded=0;fontSize=20;strokeWidth=2;entryX=0.55;entryY=0.675;entryDx=0;entryDy=0;entryPerimeter=0;" parent="WIyWlLk6GJQsqaUBKTNV-1" edge="1">
          <mxGeometry width="50" height="50" relative="1" as="geometry">
            <mxPoint x="210" y="1930" as="sourcePoint" />
            <mxPoint x="210" y="1745" as="targetPoint" />
          </mxGeometry>
        </mxCell>
        <mxCell id="8WQcC468DqVq79VYUEjq-393" value="" style="endArrow=classic;html=1;rounded=0;fontSize=20;strokeWidth=2;startArrow=none;" parent="WIyWlLk6GJQsqaUBKTNV-1" edge="1">
          <mxGeometry width="50" height="50" relative="1" as="geometry">
            <mxPoint x="210" y="1745" as="sourcePoint" />
            <mxPoint x="263" y="1744.5" as="targetPoint" />
          </mxGeometry>
        </mxCell>
        <mxCell id="8WQcC468DqVq79VYUEjq-394" value="" style="endArrow=none;html=1;rounded=0;fontSize=20;strokeWidth=2;" parent="WIyWlLk6GJQsqaUBKTNV-1" edge="1">
          <mxGeometry width="50" height="50" relative="1" as="geometry">
            <mxPoint x="210" y="1745" as="sourcePoint" />
            <mxPoint x="210" y="1745" as="targetPoint" />
          </mxGeometry>
        </mxCell>
        <mxCell id="8WQcC468DqVq79VYUEjq-395" value="" style="line;strokeWidth=2;html=1;fontSize=20;" parent="WIyWlLk6GJQsqaUBKTNV-1" vertex="1">
          <mxGeometry x="514.3199999999999" y="1740" width="55.68" height="10" as="geometry" />
        </mxCell>
        <mxCell id="8WQcC468DqVq79VYUEjq-396" value="X[ i ][ j ]" style="shape=parallelogram;perimeter=parallelogramPerimeter;whiteSpace=wrap;html=1;fixedSize=1;fontSize=19;fontColor=default;strokeColor=default;fillColor=default;" parent="WIyWlLk6GJQsqaUBKTNV-1" vertex="1">
          <mxGeometry x="336.01" y="1830" width="100" height="30" as="geometry" />
        </mxCell>
        <mxCell id="8WQcC468DqVq79VYUEjq-397" value="" style="endArrow=none;html=1;rounded=0;fontSize=20;strokeWidth=2;" parent="WIyWlLk6GJQsqaUBKTNV-1" edge="1">
          <mxGeometry width="50" height="50" relative="1" as="geometry">
            <mxPoint x="570" y="1950" as="sourcePoint" />
            <mxPoint x="569.5" y="1745" as="targetPoint" />
          </mxGeometry>
        </mxCell>
        <mxCell id="8WQcC468DqVq79VYUEjq-398" value="" style="endArrow=none;html=1;rounded=0;fontSize=20;strokeWidth=2;exitX=0.575;exitY=0.5;exitDx=0;exitDy=0;exitPerimeter=0;" parent="WIyWlLk6GJQsqaUBKTNV-1" edge="1">
          <mxGeometry width="50" height="50" relative="1" as="geometry">
            <mxPoint x="385" y="1950" as="sourcePoint" />
            <mxPoint x="570" y="1950" as="targetPoint" />
          </mxGeometry>
        </mxCell>
        <mxCell id="8WQcC468DqVq79VYUEjq-399" value="" style="endArrow=none;html=1;rounded=0;fontSize=20;strokeWidth=2;startArrow=none;" parent="WIyWlLk6GJQsqaUBKTNV-1" edge="1">
          <mxGeometry width="50" height="50" relative="1" as="geometry">
            <mxPoint x="385" y="1950" as="sourcePoint" />
            <mxPoint x="384.5" y="1950" as="targetPoint" />
          </mxGeometry>
        </mxCell>
        <mxCell id="8WQcC468DqVq79VYUEjq-400" value="" style="endArrow=none;html=1;rounded=0;fontSize=20;strokeWidth=2;" parent="WIyWlLk6GJQsqaUBKTNV-1" edge="1">
          <mxGeometry width="50" height="50" relative="1" as="geometry">
            <mxPoint x="385" y="1980" as="sourcePoint" />
            <mxPoint x="385" y="1950" as="targetPoint" />
          </mxGeometry>
        </mxCell>
        <mxCell id="8WQcC468DqVq79VYUEjq-401" value="&lt;font style=&quot;font-size: 19px&quot;&gt;Ավարտ&lt;/font&gt;" style="ellipse;whiteSpace=wrap;html=1;fontSize=25;fontColor=default;strokeColor=default;fillColor=default;" parent="WIyWlLk6GJQsqaUBKTNV-1" vertex="1">
          <mxGeometry x="327.51" y="1980" width="115" height="40" as="geometry" />
        </mxCell>
        <mxCell id="8WQcC468DqVq79VYUEjq-402" value="" style="shape=curlyBracket;whiteSpace=wrap;html=1;rounded=1;fontSize=20;" parent="WIyWlLk6GJQsqaUBKTNV-1" vertex="1">
          <mxGeometry x="158.5" y="1190" width="20" height="230" as="geometry" />
        </mxCell>
        <mxCell id="8WQcC468DqVq79VYUEjq-403" value="" style="shape=curlyBracket;whiteSpace=wrap;html=1;rounded=1;fontSize=20;" parent="WIyWlLk6GJQsqaUBKTNV-1" vertex="1">
          <mxGeometry x="158.5" y="1450" width="20" height="230" as="geometry" />
        </mxCell>
        <mxCell id="8WQcC468DqVq79VYUEjq-404" value="" style="shape=curlyBracket;whiteSpace=wrap;html=1;rounded=1;fontSize=20;" parent="WIyWlLk6GJQsqaUBKTNV-1" vertex="1">
          <mxGeometry x="158.5" y="1720" width="20" height="230" as="geometry" />
        </mxCell>
        <mxCell id="8WQcC468DqVq79VYUEjq-405" value="6" style="ellipse;whiteSpace=wrap;html=1;aspect=fixed;labelBackgroundColor=default;fontSize=20;fontColor=default;strokeColor=default;fillColor=default;" parent="WIyWlLk6GJQsqaUBKTNV-1" vertex="1">
          <mxGeometry x="116" y="1287.5" width="35" height="35" as="geometry" />
        </mxCell>
        <mxCell id="8WQcC468DqVq79VYUEjq-406" value="7" style="ellipse;whiteSpace=wrap;html=1;aspect=fixed;labelBackgroundColor=default;fontSize=20;fontColor=default;strokeColor=default;fillColor=default;" parent="WIyWlLk6GJQsqaUBKTNV-1" vertex="1">
          <mxGeometry x="116" y="1547.5" width="35" height="35" as="geometry" />
        </mxCell>
        <mxCell id="8WQcC468DqVq79VYUEjq-407" value="8" style="ellipse;whiteSpace=wrap;html=1;aspect=fixed;labelBackgroundColor=default;fontSize=20;fontColor=default;strokeColor=default;fillColor=default;" parent="WIyWlLk6GJQsqaUBKTNV-1" vertex="1">
          <mxGeometry x="118.5" y="1817.5" width="35" height="35" as="geometry" />
        </mxCell>
      </root>
    </mxGraphModel>
  </diagram>
</mxfile>
